<svg id="svg" version="1.1" xmlns="http://www.w3.org/2000/svg" xmlns:xlink="http://www.w3.org/1999/xlink" width="400" height="179.13725490196077" viewBox="0, 0, 400,179.13725490196077"><g id="svgg"><path id="path0" d="M110.614 43.735 C 110.390 43.825,110.160 44.021,110.102 44.171 C 110.045 44.322,109.845 44.444,109.658 44.444 C 109.472 44.444,109.319 44.525,109.319 44.624 C 109.319 44.722,109.204 44.803,109.063 44.803 C 108.922 44.803,108.700 44.909,108.570 45.038 C 108.440 45.167,108.071 45.388,107.751 45.530 C 107.431 45.671,107.168 45.847,107.168 45.922 C 107.168 45.996,107.005 46.057,106.804 46.057 C 106.604 46.057,106.394 46.178,106.337 46.326 C 106.280 46.474,106.081 46.595,105.895 46.595 C 105.708 46.595,105.556 46.676,105.556 46.774 C 105.556 46.873,105.435 46.953,105.287 46.953 C 105.139 46.953,105.018 47.019,105.018 47.098 C 105.018 47.178,104.675 47.393,104.256 47.576 C 103.837 47.759,103.364 48.057,103.205 48.237 C 103.046 48.418,102.663 48.616,102.354 48.678 C 102.045 48.740,101.792 48.861,101.792 48.947 C 101.792 49.033,101.701 49.104,101.589 49.104 C 101.477 49.104,101.256 49.252,101.096 49.434 C 100.937 49.615,100.603 49.814,100.355 49.875 C 100.106 49.936,99.727 50.151,99.511 50.351 C 99.295 50.552,99.035 50.717,98.932 50.717 C 98.830 50.717,98.746 50.787,98.746 50.874 C 98.746 50.960,98.493 51.081,98.184 51.143 C 97.875 51.205,97.492 51.403,97.333 51.583 C 97.173 51.764,96.700 52.062,96.281 52.245 C 95.862 52.428,95.520 52.643,95.520 52.723 C 95.520 52.802,95.399 52.867,95.251 52.867 C 95.103 52.867,94.982 52.948,94.982 53.047 C 94.982 53.145,94.821 53.226,94.624 53.226 C 94.427 53.226,94.265 53.298,94.265 53.386 C 94.265 53.473,94.064 53.596,93.817 53.658 C 93.571 53.720,93.369 53.849,93.369 53.946 C 93.369 54.043,93.208 54.122,93.011 54.122 C 92.814 54.122,92.652 54.203,92.652 54.301 C 92.652 54.400,92.531 54.480,92.384 54.480 C 92.236 54.480,92.115 54.559,92.115 54.656 C 92.115 54.753,91.913 54.882,91.667 54.944 C 91.420 55.006,91.219 55.129,91.219 55.217 C 91.219 55.304,91.087 55.376,90.926 55.376 C 90.765 55.376,90.503 55.517,90.344 55.690 C 90.184 55.862,89.590 56.235,89.023 56.518 C 88.457 56.802,87.993 57.098,87.993 57.176 C 87.993 57.255,87.762 57.370,87.479 57.432 C 87.197 57.494,86.797 57.702,86.591 57.894 C 86.385 58.086,86.132 58.244,86.029 58.244 C 85.926 58.244,85.842 58.318,85.842 58.409 C 85.842 58.499,85.611 58.624,85.329 58.686 C 85.046 58.748,84.647 58.956,84.440 59.149 C 84.234 59.341,83.981 59.498,83.878 59.498 C 83.776 59.498,83.692 59.579,83.692 59.677 C 83.692 59.776,83.536 59.857,83.346 59.857 C 83.156 59.857,82.880 59.978,82.732 60.125 C 82.584 60.273,82.376 60.394,82.271 60.394 C 82.165 60.394,82.079 60.456,82.079 60.531 C 82.079 60.607,81.776 60.809,81.407 60.980 C 80.733 61.293,80.096 61.659,79.928 61.830 C 79.879 61.880,79.516 62.082,79.122 62.278 C 78.728 62.474,78.378 62.695,78.345 62.769 C 78.312 62.843,78.136 62.903,77.954 62.903 C 77.772 62.903,77.574 63.056,77.515 63.243 C 77.448 63.453,77.171 63.627,76.786 63.699 C 76.444 63.763,76.165 63.893,76.165 63.987 C 76.165 64.081,76.033 64.158,75.872 64.158 C 75.711 64.158,75.449 64.299,75.290 64.471 C 75.130 64.644,74.698 64.939,74.328 65.127 C 73.958 65.315,73.656 65.537,73.656 65.620 C 73.656 65.703,73.495 65.771,73.297 65.771 C 73.100 65.771,72.939 65.845,72.939 65.936 C 72.939 66.026,72.708 66.151,72.426 66.213 C 72.143 66.275,71.743 66.483,71.537 66.676 C 71.331 66.868,71.078 67.025,70.975 67.025 C 70.873 67.025,70.789 67.106,70.789 67.204 C 70.789 67.303,70.625 67.384,70.424 67.384 C 70.224 67.384,70.014 67.504,69.957 67.652 C 69.901 67.800,69.701 67.921,69.515 67.921 C 69.328 67.921,69.176 68.002,69.176 68.100 C 69.176 68.199,69.055 68.280,68.907 68.280 C 68.759 68.280,68.638 68.360,68.638 68.459 C 68.638 68.557,68.487 68.638,68.302 68.638 C 68.116 68.638,67.865 68.759,67.742 68.907 C 67.619 69.055,67.408 69.176,67.272 69.176 C 67.136 69.176,67.025 69.256,67.025 69.355 C 67.025 69.453,66.872 69.534,66.686 69.534 C 66.499 69.534,66.300 69.655,66.243 69.803 C 66.187 69.951,65.976 70.072,65.776 70.072 C 65.576 70.072,65.412 70.152,65.412 70.251 C 65.412 70.349,65.309 70.430,65.183 70.430 C 65.057 70.430,64.837 70.591,64.695 70.789 C 64.553 70.986,64.336 71.147,64.213 71.147 C 63.863 71.147,62.523 71.891,62.428 72.139 C 62.381 72.261,62.126 72.405,61.861 72.459 C 61.597 72.512,61.202 72.723,60.984 72.927 C 60.767 73.131,60.464 73.297,60.312 73.297 C 60.160 73.297,60.036 73.369,60.036 73.457 C 60.036 73.545,59.853 73.663,59.629 73.719 C 59.405 73.775,59.046 73.986,58.830 74.187 C 58.614 74.388,58.314 74.552,58.162 74.552 C 58.010 74.552,57.885 74.633,57.885 74.731 C 57.885 74.830,57.770 74.910,57.629 74.910 C 57.488 74.910,57.267 75.011,57.136 75.134 C 57.006 75.258,56.658 75.479,56.362 75.627 C 56.066 75.775,55.718 75.997,55.588 76.120 C 55.457 76.243,55.236 76.344,55.095 76.344 C 54.954 76.344,54.839 76.410,54.839 76.490 C 54.839 76.570,54.556 76.746,54.211 76.882 C 53.866 77.017,53.584 77.186,53.584 77.256 C 53.584 77.327,53.342 77.469,53.047 77.572 C 52.751 77.675,52.509 77.877,52.509 78.021 C 52.509 78.165,51.965 78.623,51.299 79.038 C 48.866 80.555,48.321 81.339,48.311 83.333 C 48.300 85.348,49.770 87.634,51.075 87.634 C 51.371 87.634,51.613 87.715,51.613 87.814 C 51.613 87.912,52.016 87.993,52.509 87.993 C 53.002 87.993,53.405 87.923,53.405 87.837 C 53.405 87.752,53.746 87.636,54.163 87.580 C 54.580 87.524,54.949 87.392,54.984 87.288 C 55.019 87.183,55.213 87.097,55.415 87.097 C 55.617 87.097,55.913 86.946,56.072 86.762 C 56.232 86.578,56.609 86.374,56.910 86.308 C 57.211 86.242,57.571 86.029,57.711 85.836 C 57.850 85.642,58.068 85.484,58.194 85.484 C 58.320 85.484,58.423 85.412,58.423 85.325 C 58.423 85.237,58.688 85.116,59.011 85.055 C 59.335 84.994,59.715 84.784,59.857 84.587 C 59.999 84.390,60.258 84.229,60.434 84.229 C 60.609 84.229,60.753 84.157,60.753 84.070 C 60.753 83.982,60.954 83.859,61.201 83.797 C 61.447 83.736,61.649 83.606,61.649 83.509 C 61.649 83.412,61.770 83.333,61.918 83.333 C 62.065 83.333,62.186 83.253,62.186 83.154 C 62.186 83.056,62.348 82.975,62.545 82.975 C 62.742 82.975,62.903 82.903,62.903 82.815 C 62.903 82.727,63.105 82.605,63.351 82.543 C 63.598 82.481,63.799 82.351,63.799 82.255 C 63.799 82.158,63.961 82.079,64.158 82.079 C 64.355 82.079,64.516 81.998,64.516 81.900 C 64.516 81.801,64.637 81.720,64.785 81.720 C 64.933 81.720,65.054 81.641,65.054 81.545 C 65.054 81.448,65.255 81.318,65.502 81.256 C 65.748 81.195,65.950 81.072,65.950 80.984 C 65.950 80.896,66.093 80.824,66.269 80.824 C 66.444 80.824,66.704 80.663,66.846 80.466 C 66.988 80.269,67.175 80.108,67.262 80.108 C 67.558 80.108,68.727 79.499,68.996 79.204 C 69.144 79.043,69.468 78.860,69.717 78.799 C 69.965 78.738,70.345 78.523,70.561 78.322 C 70.776 78.121,71.037 77.957,71.139 77.957 C 71.242 77.957,71.326 77.886,71.326 77.800 C 71.326 77.714,71.579 77.593,71.888 77.531 C 72.197 77.469,72.580 77.271,72.739 77.090 C 72.898 76.910,73.371 76.612,73.790 76.429 C 74.209 76.246,74.552 76.031,74.552 75.951 C 74.552 75.872,74.673 75.806,74.821 75.806 C 74.969 75.806,75.090 75.726,75.090 75.627 C 75.090 75.529,75.251 75.448,75.448 75.448 C 75.645 75.448,75.806 75.367,75.806 75.269 C 75.806 75.170,75.922 75.090,76.062 75.090 C 76.203 75.090,76.425 74.989,76.555 74.866 C 76.686 74.742,77.034 74.521,77.330 74.373 C 77.625 74.225,77.974 74.003,78.104 73.880 C 78.234 73.757,78.456 73.656,78.597 73.656 C 78.738 73.656,78.853 73.575,78.853 73.477 C 78.853 73.378,78.997 73.297,79.172 73.297 C 79.347 73.297,79.605 73.139,79.744 72.946 C 79.884 72.752,80.224 72.544,80.501 72.483 C 80.777 72.423,81.004 72.299,81.004 72.208 C 81.004 72.117,81.109 72.043,81.239 72.043 C 81.368 72.043,81.636 71.892,81.835 71.707 C 82.033 71.521,82.385 71.310,82.616 71.237 C 82.848 71.163,83.199 70.952,83.398 70.767 C 83.597 70.582,83.865 70.430,83.994 70.430 C 84.124 70.430,84.229 70.356,84.229 70.265 C 84.229 70.174,84.460 70.049,84.743 69.987 C 85.025 69.925,85.425 69.717,85.631 69.525 C 85.838 69.333,86.091 69.176,86.193 69.176 C 86.296 69.176,86.380 69.095,86.380 68.996 C 86.380 68.898,86.531 68.817,86.716 68.817 C 86.901 68.817,87.153 68.696,87.276 68.548 C 87.399 68.401,87.610 68.280,87.746 68.280 C 87.882 68.280,87.993 68.199,87.993 68.100 C 87.993 68.002,88.114 67.921,88.262 67.921 C 88.409 67.921,88.530 67.841,88.530 67.742 C 88.530 67.643,88.686 67.563,88.876 67.563 C 89.066 67.563,89.343 67.442,89.491 67.294 C 89.638 67.146,89.846 67.025,89.951 67.025 C 90.057 67.025,90.143 66.963,90.143 66.886 C 90.143 66.810,90.506 66.588,90.948 66.393 C 91.391 66.199,91.754 65.979,91.755 65.905 C 91.756 65.831,91.877 65.771,92.024 65.771 C 92.171 65.771,92.392 65.609,92.515 65.412 C 92.638 65.215,92.845 65.054,92.975 65.054 C 93.213 65.054,94.816 64.215,94.982 64.003 C 95.031 63.940,95.374 63.735,95.744 63.547 C 96.113 63.359,96.416 63.137,96.416 63.054 C 96.416 62.971,96.577 62.903,96.774 62.903 C 96.971 62.903,97.133 62.829,97.133 62.738 C 97.133 62.648,97.375 62.520,97.670 62.455 C 97.966 62.390,98.208 62.263,98.208 62.172 C 98.208 62.081,98.329 62.007,98.477 62.007 C 98.625 62.007,98.746 61.927,98.746 61.828 C 98.746 61.729,98.866 61.649,99.014 61.649 C 99.162 61.649,99.283 61.577,99.283 61.489 C 99.283 61.401,99.485 61.279,99.731 61.217 C 99.978 61.155,100.179 61.025,100.179 60.928 C 100.179 60.832,100.341 60.753,100.538 60.753 C 100.735 60.753,100.896 60.672,100.896 60.573 C 100.896 60.475,101.017 60.394,101.165 60.394 C 101.313 60.394,101.434 60.314,101.434 60.215 C 101.434 60.116,101.585 60.036,101.770 60.036 C 101.955 60.036,102.207 59.915,102.330 59.767 C 102.452 59.619,102.664 59.498,102.800 59.498 C 102.936 59.498,103.047 59.418,103.047 59.319 C 103.047 59.220,103.133 59.140,103.239 59.140 C 103.344 59.140,103.552 59.019,103.699 58.871 C 103.847 58.723,104.124 58.602,104.314 58.602 C 104.504 58.602,104.659 58.522,104.659 58.423 C 104.659 58.324,104.763 58.244,104.889 58.244 C 105.015 58.244,105.234 58.083,105.376 57.886 C 105.518 57.689,105.898 57.479,106.222 57.418 C 106.545 57.357,106.810 57.236,106.810 57.149 C 106.810 57.061,106.901 56.989,107.013 56.989 C 107.125 56.989,107.346 56.841,107.506 56.659 C 107.665 56.478,107.999 56.280,108.247 56.218 C 108.496 56.157,108.875 55.943,109.091 55.742 C 109.307 55.541,109.608 55.376,109.760 55.376 C 109.912 55.376,110.036 55.304,110.036 55.217 C 110.036 55.129,110.219 55.011,110.443 54.955 C 110.666 54.899,111.026 54.688,111.242 54.487 C 111.457 54.286,111.758 54.122,111.910 54.122 C 112.062 54.122,112.186 54.041,112.186 53.943 C 112.186 53.844,112.302 53.763,112.442 53.763 C 112.583 53.763,112.805 53.658,112.935 53.528 C 113.065 53.399,113.434 53.178,113.754 53.037 C 114.621 52.655,114.484 52.279,113.235 51.613 C 109.975 49.876,109.081 47.069,110.923 44.355 C 111.477 43.539,111.415 43.413,110.614 43.735 " stroke="none" fill="#f3bc24" fill-rule="evenodd"></path><path id="path1" d="M51.075 42.643 C 51.075 42.747,50.874 42.832,50.629 42.832 C 50.376 42.832,50.085 42.987,49.958 43.190 C 49.835 43.387,49.628 43.548,49.499 43.548 C 49.260 43.548,47.657 44.388,47.491 44.599 C 47.442 44.662,46.938 44.945,46.371 45.228 C 45.804 45.511,45.341 45.807,45.341 45.886 C 45.341 45.965,45.109 46.080,44.827 46.142 C 44.545 46.204,44.145 46.412,43.939 46.604 C 43.732 46.796,43.479 46.953,43.377 46.953 C 43.274 46.953,43.190 47.014,43.189 47.088 C 43.189 47.162,42.826 47.371,42.383 47.554 C 41.940 47.736,41.577 47.958,41.577 48.046 C 41.577 48.135,41.456 48.208,41.308 48.208 C 41.160 48.208,41.039 48.280,41.039 48.367 C 41.039 48.455,40.775 48.576,40.451 48.637 C 40.128 48.697,39.747 48.908,39.605 49.105 C 39.463 49.301,39.204 49.462,39.029 49.462 C 38.853 49.462,38.710 49.534,38.710 49.622 C 38.710 49.710,38.501 49.834,38.246 49.898 C 37.992 49.962,37.613 50.173,37.406 50.366 C 37.199 50.559,36.923 50.717,36.794 50.717 C 36.665 50.717,36.559 50.791,36.559 50.882 C 36.559 50.973,36.328 51.098,36.046 51.160 C 35.763 51.222,35.363 51.430,35.157 51.622 C 34.951 51.814,34.698 51.971,34.595 51.971 C 34.493 51.971,34.408 52.032,34.407 52.106 C 34.406 52.180,34.043 52.399,33.600 52.594 C 33.158 52.789,32.796 53.010,32.796 53.087 C 32.796 53.163,32.681 53.226,32.542 53.226 C 32.402 53.226,32.261 53.286,32.228 53.360 C 32.195 53.434,31.846 53.655,31.452 53.851 C 31.057 54.048,30.694 54.253,30.645 54.309 C 30.596 54.364,30.245 54.566,29.866 54.758 C 28.574 55.413,28.495 55.461,28.495 55.598 C 28.495 55.673,28.333 55.735,28.136 55.735 C 27.939 55.735,27.778 55.807,27.778 55.895 C 27.778 55.982,27.576 56.105,27.330 56.167 C 27.083 56.229,26.882 56.358,26.882 56.455 C 26.882 56.552,26.720 56.631,26.523 56.631 C 26.326 56.631,26.165 56.711,26.165 56.810 C 26.165 56.909,26.044 56.989,25.896 56.989 C 25.748 56.989,25.626 57.050,25.626 57.124 C 25.625 57.198,25.262 57.417,24.819 57.612 C 24.376 57.806,24.014 58.028,24.014 58.105 C 24.014 58.181,23.903 58.244,23.767 58.244 C 23.632 58.244,23.420 58.365,23.297 58.513 C 23.175 58.660,22.923 58.781,22.738 58.781 C 22.553 58.781,22.401 58.862,22.401 58.961 C 22.401 59.059,22.280 59.140,22.133 59.140 C 21.985 59.140,21.864 59.220,21.864 59.319 C 21.864 59.418,21.689 59.498,21.476 59.498 C 21.262 59.498,21.137 59.548,21.198 59.609 C 21.259 59.670,20.889 59.936,20.377 60.201 C 18.670 61.082,16.651 62.545,17.142 62.545 C 17.216 62.545,17.179 62.642,17.061 62.760 C 16.943 62.878,16.846 63.120,16.846 63.297 C 16.846 63.475,16.765 63.620,16.667 63.620 C 16.272 63.620,16.461 66.545,16.917 67.484 C 17.332 68.340,18.094 69.176,18.460 69.176 C 18.558 69.176,18.638 69.256,18.638 69.355 C 18.638 69.453,18.799 69.534,18.996 69.534 C 19.194 69.534,19.355 69.613,19.355 69.710 C 19.355 69.807,19.556 69.936,19.803 69.998 C 20.049 70.060,20.251 70.182,20.251 70.270 C 20.251 70.358,20.372 70.430,20.520 70.430 C 20.668 70.430,20.789 70.511,20.789 70.609 C 20.789 70.708,20.950 70.789,21.147 70.789 C 21.344 70.789,21.505 70.868,21.505 70.964 C 21.505 71.061,21.707 71.191,21.953 71.253 C 22.200 71.314,22.401 71.437,22.401 71.525 C 22.401 71.613,22.563 71.685,22.760 71.685 C 22.957 71.685,23.118 71.765,23.118 71.864 C 23.118 71.962,23.205 72.043,23.310 72.043 C 23.416 72.043,23.623 72.164,23.771 72.312 C 23.919 72.460,24.195 72.581,24.386 72.581 C 24.576 72.581,24.731 72.661,24.731 72.760 C 24.731 72.858,24.815 72.939,24.918 72.939 C 25.021 72.939,25.273 73.096,25.480 73.289 C 25.686 73.481,26.086 73.689,26.368 73.751 C 26.651 73.813,26.882 73.938,26.882 74.029 C 26.882 74.119,27.003 74.194,27.151 74.194 C 27.298 74.194,27.419 74.266,27.419 74.355 C 27.419 74.444,27.782 74.666,28.225 74.848 C 28.668 75.030,29.031 75.240,29.032 75.314 C 29.032 75.388,29.153 75.448,29.301 75.448 C 29.449 75.448,29.571 75.509,29.572 75.582 C 29.573 75.656,29.916 75.878,30.334 76.074 C 30.751 76.270,31.194 76.527,31.317 76.644 C 31.493 76.810,31.541 79.995,31.541 91.385 C 31.541 99.532,31.610 105.914,31.698 105.914 C 31.783 105.914,31.903 106.221,31.963 106.596 C 32.023 106.971,32.215 107.412,32.389 107.577 C 33.522 108.648,33.900 108.923,34.946 109.439 C 35.291 109.609,35.614 109.795,35.663 109.851 C 35.884 110.105,36.751 110.573,37.001 110.573 C 37.152 110.573,37.276 110.654,37.276 110.753 C 37.276 110.851,37.397 110.932,37.545 110.932 C 37.693 110.932,37.814 111.005,37.814 111.093 C 37.814 111.182,38.176 111.404,38.619 111.586 C 39.063 111.768,39.425 111.978,39.426 112.052 C 39.426 112.126,39.547 112.186,39.695 112.186 C 39.843 112.186,39.964 112.255,39.964 112.338 C 39.964 112.422,40.307 112.642,40.726 112.826 C 41.145 113.011,41.528 113.205,41.577 113.257 C 41.677 113.363,42.293 113.722,43.100 114.145 C 43.396 114.300,43.678 114.478,43.727 114.541 C 43.894 114.752,45.497 115.591,45.735 115.591 C 45.865 115.591,46.072 115.753,46.195 115.950 C 46.318 116.147,46.539 116.308,46.686 116.308 C 46.833 116.308,46.953 116.394,46.953 116.498 C 46.953 116.602,47.028 116.641,47.120 116.585 C 47.212 116.528,47.338 116.564,47.400 116.664 C 47.462 116.764,47.662 116.846,47.845 116.846 C 48.028 116.846,48.205 116.909,48.238 116.987 C 48.333 117.211,49.331 117.861,49.807 118.009 C 50.046 118.083,50.399 118.292,50.593 118.472 C 50.786 118.652,51.236 118.936,51.592 119.104 C 51.949 119.271,52.280 119.457,52.330 119.516 C 52.379 119.576,52.661 119.745,52.957 119.892 C 53.253 120.040,53.535 120.201,53.584 120.251 C 53.634 120.300,53.916 120.467,54.212 120.622 C 54.991 121.031,55.632 121.402,55.735 121.505 C 55.784 121.555,56.147 121.756,56.541 121.952 C 56.935 122.148,57.298 122.354,57.348 122.409 C 57.397 122.464,57.747 122.667,58.127 122.859 C 59.419 123.513,59.498 123.562,59.498 123.698 C 59.498 123.774,59.609 123.835,59.745 123.835 C 59.881 123.835,60.092 123.956,60.215 124.104 C 60.338 124.252,60.590 124.373,60.775 124.373 C 60.960 124.373,61.111 124.453,61.111 124.552 C 61.111 124.651,61.232 124.731,61.380 124.731 C 61.528 124.731,61.649 124.812,61.649 124.910 C 61.649 125.009,61.810 125.090,62.007 125.090 C 62.204 125.090,62.366 125.169,62.366 125.265 C 62.366 125.362,62.567 125.492,62.814 125.554 C 63.060 125.615,63.262 125.738,63.262 125.826 C 63.262 125.914,63.383 125.986,63.530 125.986 C 63.678 125.986,63.799 126.066,63.799 126.165 C 63.799 126.263,63.961 126.344,64.158 126.344 C 64.355 126.344,64.516 126.423,64.516 126.520 C 64.516 126.617,64.718 126.746,64.964 126.808 C 65.211 126.870,65.412 126.992,65.412 127.080 C 65.412 127.168,65.537 127.240,65.688 127.240 C 65.840 127.240,66.141 127.405,66.357 127.606 C 66.573 127.806,66.932 128.017,67.156 128.073 C 67.380 128.129,67.563 128.247,67.563 128.335 C 67.563 128.423,67.687 128.495,67.839 128.495 C 67.991 128.495,68.293 128.661,68.511 128.865 C 68.729 129.069,69.129 129.281,69.400 129.336 C 69.671 129.391,69.892 129.506,69.892 129.592 C 69.892 129.679,70.013 129.749,70.161 129.749 C 70.309 129.749,70.431 129.810,70.431 129.884 C 70.433 130.064,71.469 130.645,71.789 130.645 C 71.929 130.645,72.043 130.726,72.043 130.824 C 72.043 130.923,72.127 131.004,72.230 131.004 C 72.332 131.004,72.582 131.158,72.785 131.347 C 72.988 131.536,73.354 131.741,73.599 131.802 C 73.844 131.864,74.215 132.072,74.422 132.265 C 74.629 132.458,74.905 132.616,75.034 132.616 C 75.163 132.616,75.269 132.691,75.269 132.781 C 75.269 132.872,75.511 133.000,75.806 133.065 C 76.102 133.129,76.344 133.241,76.344 133.312 C 76.344 133.478,78.058 134.409,78.364 134.409 C 78.491 134.409,78.711 134.570,78.853 134.767 C 78.995 134.964,79.215 135.125,79.341 135.125 C 79.467 135.125,79.570 135.200,79.570 135.290 C 79.570 135.381,79.832 135.513,80.152 135.583 C 80.472 135.654,80.865 135.862,81.024 136.046 C 81.184 136.229,81.486 136.380,81.697 136.380 C 81.907 136.380,82.079 136.461,82.079 136.559 C 82.079 136.663,82.646 136.738,83.423 136.738 C 84.200 136.738,84.767 136.663,84.767 136.559 C 84.767 136.461,84.929 136.380,85.128 136.380 C 85.504 136.380,86.104 136.091,86.520 135.708 C 86.654 135.585,86.879 135.484,87.020 135.484 C 87.161 135.484,87.276 135.403,87.276 135.305 C 87.276 135.206,87.382 135.125,87.511 135.125 C 87.640 135.125,87.916 134.967,88.123 134.774 C 88.330 134.581,88.708 134.371,88.963 134.307 C 89.218 134.243,89.427 134.119,89.427 134.031 C 89.427 133.943,89.532 133.871,89.662 133.871 C 89.791 133.871,90.070 133.710,90.281 133.513 C 90.493 133.315,90.718 133.154,90.781 133.154 C 91.043 133.154,92.224 132.524,92.473 132.251 C 92.621 132.089,92.945 131.907,93.194 131.846 C 93.442 131.784,93.805 131.590,94.000 131.414 C 94.195 131.237,94.819 130.862,95.385 130.579 C 95.952 130.296,96.416 129.994,96.416 129.907 C 96.416 129.820,96.577 129.749,96.774 129.749 C 96.971 129.749,97.133 129.686,97.133 129.609 C 97.133 129.532,97.354 129.377,97.625 129.263 C 98.193 129.026,99.151 128.461,99.285 128.285 C 99.335 128.219,99.589 128.111,99.850 128.046 C 100.110 127.980,100.489 127.772,100.692 127.584 C 100.894 127.395,101.144 127.240,101.247 127.240 C 101.350 127.240,101.434 127.159,101.434 127.061 C 101.434 126.962,101.585 126.882,101.770 126.882 C 101.955 126.882,102.207 126.761,102.330 126.613 C 102.452 126.465,102.664 126.344,102.800 126.344 C 102.936 126.344,103.047 126.263,103.047 126.165 C 103.047 126.066,103.168 125.986,103.315 125.986 C 103.463 125.986,103.584 125.905,103.584 125.806 C 103.584 125.708,103.736 125.627,103.921 125.627 C 104.106 125.627,104.358 125.506,104.480 125.358 C 104.603 125.211,104.814 125.090,104.950 125.090 C 105.086 125.090,105.197 125.009,105.197 124.910 C 105.197 124.812,105.358 124.731,105.556 124.731 C 105.753 124.731,105.914 124.651,105.914 124.552 C 105.914 124.453,106.029 124.373,106.170 124.373 C 106.311 124.373,106.533 124.267,106.663 124.138 C 106.793 124.008,107.162 123.787,107.482 123.646 C 107.802 123.505,108.065 123.328,108.065 123.254 C 108.065 123.179,108.180 123.118,108.321 123.118 C 108.461 123.118,108.683 123.013,108.813 122.883 C 108.944 122.754,109.312 122.533,109.633 122.391 C 109.953 122.250,110.215 122.086,110.215 122.026 C 110.215 121.967,110.578 121.768,111.022 121.585 C 111.465 121.402,111.828 121.189,111.828 121.110 C 111.828 121.032,111.949 120.968,112.097 120.968 C 112.245 120.968,112.366 120.895,112.366 120.806 C 112.366 120.717,112.587 120.558,112.858 120.453 C 113.129 120.348,113.674 120.071,114.068 119.838 C 114.462 119.604,115.160 119.205,115.618 118.950 C 116.077 118.695,116.781 118.278,117.183 118.024 C 117.585 117.770,117.981 117.563,118.063 117.563 C 118.145 117.563,118.368 117.422,118.559 117.249 C 118.750 117.077,119.290 116.748,119.758 116.520 C 120.226 116.291,120.709 116.008,120.833 115.889 C 120.956 115.771,121.396 115.525,121.810 115.341 C 122.224 115.157,122.708 114.876,122.885 114.715 C 123.063 114.554,123.551 114.270,123.970 114.083 C 124.388 113.897,124.731 113.676,124.731 113.593 C 124.731 113.509,124.852 113.441,125.000 113.441 C 125.148 113.441,125.269 113.360,125.269 113.262 C 125.269 113.163,125.383 113.082,125.523 113.082 C 125.843 113.082,126.879 112.501,126.881 112.321 C 126.881 112.247,127.043 112.186,127.240 112.186 C 127.437 112.186,127.599 112.114,127.599 112.027 C 127.599 111.939,127.782 111.821,128.005 111.765 C 128.229 111.709,128.589 111.498,128.804 111.297 C 129.020 111.096,129.321 110.932,129.473 110.932 C 129.625 110.932,129.749 110.871,129.750 110.797 C 129.750 110.724,130.113 110.514,130.556 110.332 C 130.999 110.149,131.362 109.928,131.362 109.839 C 131.362 109.750,131.483 109.677,131.631 109.677 C 131.779 109.677,131.900 109.606,131.900 109.519 C 131.900 109.432,132.041 109.312,132.213 109.253 C 133.142 108.933,134.749 107.543,134.762 107.049 C 134.765 106.934,134.868 106.806,134.991 106.765 C 135.167 106.707,135.226 103.511,135.265 91.768 C 135.303 80.300,135.365 76.798,135.534 76.637 C 135.654 76.522,136.095 76.275,136.514 76.090 C 136.933 75.904,137.276 75.684,137.276 75.600 C 137.276 75.516,137.397 75.448,137.545 75.448 C 137.693 75.448,137.814 75.377,137.814 75.291 C 137.814 75.205,138.035 75.090,138.306 75.035 C 138.578 74.980,138.961 74.788,139.158 74.609 C 139.355 74.430,139.980 74.052,140.547 73.769 C 141.113 73.486,141.577 73.184,141.577 73.097 C 141.577 73.010,141.738 72.939,141.935 72.939 C 142.133 72.939,142.294 72.865,142.294 72.774 C 142.294 72.683,142.527 72.558,142.813 72.495 C 143.098 72.432,143.474 72.224,143.647 72.033 C 143.821 71.841,144.071 71.685,144.203 71.685 C 144.336 71.685,144.444 71.613,144.444 71.525 C 144.444 71.437,144.646 71.314,144.892 71.253 C 145.139 71.191,145.341 71.061,145.341 70.964 C 145.341 70.868,145.502 70.789,145.699 70.789 C 145.896 70.789,146.057 70.708,146.057 70.609 C 146.057 70.511,146.178 70.430,146.326 70.430 C 146.474 70.430,146.595 70.356,146.595 70.265 C 146.595 70.174,146.837 70.047,147.133 69.982 C 147.428 69.917,147.670 69.790,147.670 69.699 C 147.670 69.608,147.791 69.534,147.939 69.534 C 148.087 69.534,148.208 69.453,148.208 69.355 C 148.208 69.256,148.291 69.176,148.392 69.176 C 148.666 69.176,149.821 68.078,149.821 67.818 C 149.821 67.694,149.922 67.559,150.045 67.518 C 150.443 67.386,150.459 63.975,150.065 63.146 C 149.666 62.305,148.795 61.374,148.253 61.209 C 148.031 61.142,147.849 61.012,147.849 60.920 C 147.849 60.828,147.728 60.753,147.581 60.753 C 147.433 60.753,147.312 60.672,147.312 60.573 C 147.312 60.475,147.151 60.394,146.953 60.394 C 146.756 60.394,146.595 60.314,146.595 60.215 C 146.595 60.116,146.480 60.036,146.339 60.036 C 146.198 60.036,145.976 59.932,145.846 59.805 C 145.716 59.678,145.327 59.431,144.982 59.256 C 144.034 58.776,142.932 58.165,142.832 58.065 C 142.685 57.918,142.068 57.558,141.398 57.228 C 141.053 57.057,140.730 56.873,140.681 56.818 C 140.632 56.762,140.269 56.556,139.875 56.360 C 139.480 56.164,139.131 55.943,139.098 55.869 C 139.065 55.795,138.924 55.735,138.784 55.735 C 138.645 55.735,138.530 55.654,138.530 55.556 C 138.530 55.457,138.369 55.376,138.172 55.376 C 137.975 55.376,137.814 55.297,137.814 55.201 C 137.814 55.104,137.612 54.974,137.366 54.912 C 137.119 54.850,136.918 54.728,136.918 54.640 C 136.918 54.552,136.797 54.480,136.649 54.480 C 136.501 54.480,136.380 54.400,136.380 54.301 C 136.380 54.203,136.219 54.122,136.022 54.122 C 135.824 54.122,135.663 54.043,135.663 53.946 C 135.663 53.849,135.461 53.720,135.215 53.658 C 134.969 53.596,134.767 53.473,134.767 53.386 C 134.767 53.298,134.624 53.226,134.448 53.226 C 134.273 53.226,134.013 53.065,133.871 52.867 C 133.729 52.670,133.542 52.509,133.455 52.509 C 133.179 52.509,132.001 51.904,131.651 51.583 C 131.466 51.412,131.083 51.222,130.800 51.160 C 130.518 51.098,130.287 50.973,130.287 50.882 C 130.287 50.791,130.203 50.717,130.100 50.717 C 129.997 50.717,129.745 50.560,129.538 50.367 C 129.332 50.175,128.932 49.967,128.650 49.905 C 128.367 49.843,128.136 49.718,128.136 49.627 C 128.136 49.537,128.028 49.462,127.895 49.462 C 127.763 49.462,127.512 49.306,127.339 49.114 C 127.166 48.923,126.790 48.715,126.505 48.652 C 126.219 48.589,125.986 48.464,125.986 48.373 C 125.986 48.282,125.842 48.208,125.667 48.208 C 125.491 48.208,125.232 48.047,125.090 47.849 C 124.948 47.652,124.760 47.491,124.674 47.491 C 124.391 47.491,123.216 46.883,122.853 46.549 C 122.658 46.370,122.296 46.172,122.048 46.110 C 121.801 46.048,121.506 45.910,121.393 45.803 C 120.822 45.266,120.444 45.024,119.996 44.912 C 119.725 44.844,119.338 44.634,119.136 44.446 C 118.582 43.930,117.677 43.552,117.259 43.661 C 117.054 43.715,116.832 43.671,116.766 43.564 C 116.700 43.457,116.489 43.369,116.298 43.369 C 116.106 43.369,115.950 43.289,115.950 43.190 C 115.950 43.084,115.293 43.011,114.337 43.011 C 113.381 43.011,112.724 43.084,112.724 43.190 C 112.724 43.289,112.611 43.369,112.472 43.369 C 112.120 43.369,110.573 45.128,110.573 45.529 C 110.573 45.709,110.493 45.907,110.394 45.968 C 110.296 46.029,110.215 46.553,110.215 47.133 C 110.215 47.712,110.296 48.237,110.394 48.297 C 110.493 48.358,110.573 48.553,110.573 48.731 C 110.573 49.147,111.813 50.556,112.478 50.896 C 113.816 51.581,114.696 52.208,114.698 52.480 C 114.700 52.793,115.568 53.439,116.299 53.671 C 116.535 53.746,116.893 53.960,117.094 54.147 C 117.295 54.335,117.765 54.622,118.138 54.787 C 118.512 54.952,118.817 55.137,118.817 55.198 C 118.817 55.259,119.099 55.420,119.444 55.556 C 119.789 55.691,120.072 55.859,120.072 55.928 C 120.072 55.997,120.273 56.105,120.520 56.167 C 120.766 56.229,120.968 56.358,120.968 56.455 C 120.968 56.552,121.129 56.631,121.326 56.631 C 121.523 56.631,121.685 56.702,121.685 56.789 C 121.685 56.876,121.826 56.993,121.998 57.048 C 122.301 57.145,123.435 57.780,124.731 58.579 C 125.076 58.792,125.500 59.014,125.672 59.074 C 125.845 59.133,125.986 59.236,125.986 59.303 C 125.986 59.370,126.349 59.574,126.792 59.757 C 127.236 59.940,127.599 60.158,127.599 60.242 C 127.599 60.326,127.720 60.394,127.867 60.394 C 128.015 60.394,128.136 60.475,128.136 60.573 C 128.136 60.672,128.297 60.753,128.495 60.753 C 128.692 60.753,128.853 60.832,128.853 60.928 C 128.853 61.025,129.055 61.155,129.301 61.217 C 129.547 61.279,129.749 61.381,129.749 61.445 C 129.749 61.509,130.011 61.677,130.332 61.818 C 130.652 61.959,131.021 62.181,131.151 62.310 C 131.281 62.439,131.503 62.545,131.644 62.545 C 131.784 62.545,131.900 62.625,131.900 62.724 C 131.900 62.823,132.061 62.903,132.258 62.903 C 132.455 62.903,132.616 62.965,132.616 63.040 C 132.616 63.177,133.147 63.501,133.737 63.723 C 133.909 63.788,134.050 63.912,134.050 63.999 C 134.050 64.086,134.211 64.158,134.409 64.158 C 134.606 64.158,134.767 64.220,134.767 64.297 C 134.767 64.373,135.129 64.595,135.572 64.790 C 136.326 65.121,136.617 65.412,136.194 65.412 C 136.091 65.412,135.588 65.694,135.076 66.039 C 134.564 66.384,134.002 66.667,133.829 66.667 C 133.655 66.667,133.513 66.728,133.513 66.803 C 133.513 66.949,133.290 67.083,132.105 67.650 C 131.697 67.846,131.362 68.067,131.362 68.143 C 131.362 68.218,131.196 68.280,130.993 68.280 C 130.790 68.280,130.674 68.361,130.736 68.461 C 130.798 68.562,130.604 68.691,130.299 68.752 C 129.996 68.813,129.749 68.933,129.749 69.019 C 129.749 69.105,129.628 69.176,129.480 69.176 C 129.332 69.176,129.211 69.247,129.211 69.334 C 129.211 69.421,129.070 69.539,128.898 69.595 C 128.436 69.747,127.080 70.536,126.719 70.863 C 126.547 71.019,126.343 71.147,126.267 71.147 C 125.984 71.147,124.811 71.767,124.552 72.053 C 124.404 72.216,124.082 72.413,123.835 72.489 C 123.349 72.640,122.348 73.288,122.252 73.515 C 122.219 73.593,122.072 73.656,121.926 73.656 C 121.573 73.656,120.072 74.541,120.072 74.748 C 120.072 74.837,119.949 74.910,119.799 74.910 C 119.649 74.910,119.208 75.112,118.817 75.358 C 118.427 75.605,118.032 75.806,117.940 75.806 C 117.847 75.806,117.745 75.867,117.712 75.941 C 117.628 76.130,116.567 76.703,116.302 76.703 C 116.181 76.703,115.951 76.848,115.792 77.025 C 115.632 77.203,115.192 77.505,114.812 77.697 C 113.519 78.353,113.441 78.401,113.441 78.537 C 113.441 78.612,113.320 78.674,113.172 78.674 C 113.024 78.674,112.903 78.754,112.903 78.853 C 112.903 78.952,112.754 79.032,112.572 79.032 C 112.390 79.032,112.073 79.178,111.867 79.357 C 111.661 79.536,111.286 79.837,111.033 80.027 C 110.780 80.217,110.573 80.439,110.573 80.521 C 110.573 80.603,110.453 80.792,110.305 80.940 C 110.157 81.087,110.036 81.485,110.036 81.823 C 110.036 82.161,109.955 82.437,109.857 82.437 C 109.638 82.437,109.615 84.349,109.832 84.483 C 109.918 84.536,110.035 84.874,110.094 85.234 C 110.233 86.091,111.600 87.441,112.473 87.582 C 112.808 87.637,113.082 87.751,113.082 87.837 C 113.082 87.923,113.728 87.993,114.516 87.993 C 115.352 87.993,115.950 87.918,115.950 87.814 C 115.950 87.715,116.030 87.634,116.128 87.634 C 116.434 87.634,117.742 87.019,117.742 86.875 C 117.742 86.800,117.903 86.738,118.100 86.738 C 118.297 86.738,118.459 86.659,118.459 86.563 C 118.459 86.466,118.660 86.336,118.907 86.274 C 119.153 86.212,119.355 86.090,119.355 86.002 C 119.355 85.914,119.476 85.842,119.624 85.842 C 119.772 85.842,119.892 85.762,119.892 85.663 C 119.892 85.565,120.054 85.484,120.251 85.484 C 120.448 85.484,120.609 85.405,120.609 85.308 C 120.609 85.211,120.811 85.082,121.057 85.020 C 121.304 84.958,121.505 84.835,121.505 84.748 C 121.505 84.660,121.611 84.588,121.740 84.588 C 121.870 84.588,122.149 84.427,122.360 84.229 C 122.572 84.032,122.797 83.871,122.860 83.871 C 123.120 83.871,124.302 83.241,124.552 82.969 C 124.700 82.809,125.083 82.587,125.403 82.477 L 125.986 82.277 125.986 92.214 C 125.986 102.126,125.985 102.151,125.617 102.151 C 125.414 102.151,125.298 102.231,125.358 102.330 C 125.419 102.428,125.303 102.509,125.100 102.509 C 124.897 102.509,124.731 102.588,124.731 102.685 C 124.731 102.781,124.530 102.911,124.283 102.973 C 124.037 103.035,123.835 103.142,123.835 103.212 C 123.835 103.281,123.553 103.449,123.208 103.584 C 122.863 103.720,122.581 103.884,122.581 103.949 C 122.581 104.014,122.238 104.219,121.819 104.403 C 121.400 104.588,121.017 104.782,120.968 104.834 C 120.839 104.969,120.250 105.322,119.603 105.649 C 119.296 105.805,118.876 106.089,118.670 106.281 C 118.463 106.474,118.213 106.631,118.113 106.631 C 117.782 106.631,116.457 107.396,116.363 107.643 C 116.312 107.776,116.160 107.885,116.025 107.885 C 115.890 107.885,115.521 108.042,115.205 108.234 C 114.889 108.426,114.552 108.535,114.456 108.476 C 114.359 108.416,114.339 108.460,114.409 108.574 C 114.484 108.695,114.427 108.781,114.273 108.781 C 114.127 108.781,113.981 108.842,113.949 108.916 C 113.916 108.990,113.425 109.285,112.858 109.573 C 112.292 109.860,111.828 110.156,111.828 110.231 C 111.828 110.305,111.597 110.417,111.315 110.479 C 111.032 110.541,110.632 110.749,110.426 110.941 C 110.220 111.133,109.967 111.290,109.864 111.290 C 109.761 111.290,109.677 111.365,109.677 111.455 C 109.677 111.546,109.446 111.671,109.164 111.733 C 108.882 111.795,108.482 112.003,108.275 112.195 C 108.069 112.388,107.816 112.545,107.714 112.545 C 107.611 112.545,107.527 112.625,107.527 112.724 C 107.527 112.823,107.403 112.903,107.252 112.903 C 107.002 112.903,106.134 113.372,105.914 113.625 C 105.775 113.785,104.539 114.337,104.320 114.337 C 104.213 114.337,104.024 114.498,103.901 114.695 C 103.778 114.892,103.535 115.054,103.362 115.054 C 103.188 115.054,103.047 115.134,103.047 115.233 C 103.047 115.332,102.931 115.412,102.791 115.412 C 102.650 115.412,102.428 115.518,102.298 115.647 C 102.167 115.776,101.799 115.998,101.478 116.139 C 101.158 116.280,100.896 116.457,100.896 116.531 C 100.896 116.606,100.732 116.667,100.532 116.667 C 100.332 116.667,100.122 116.788,100.065 116.935 C 100.008 117.083,99.809 117.204,99.622 117.204 C 99.436 117.204,99.283 117.285,99.283 117.384 C 99.283 117.482,99.162 117.563,99.014 117.563 C 98.866 117.563,98.746 117.643,98.746 117.742 C 98.746 117.841,98.594 117.921,98.409 117.921 C 98.224 117.921,97.972 118.042,97.849 118.190 C 97.727 118.338,97.515 118.459,97.379 118.459 C 97.244 118.459,97.133 118.539,97.133 118.638 C 97.133 118.737,96.971 118.817,96.774 118.817 C 96.577 118.817,96.416 118.899,96.416 118.999 C 96.416 119.099,96.113 119.321,95.744 119.492 C 95.374 119.663,95.031 119.843,94.982 119.892 C 94.877 119.998,94.079 120.445,92.985 121.011 C 92.556 121.234,92.098 121.517,91.967 121.640 C 91.837 121.763,91.622 121.864,91.490 121.864 C 91.357 121.864,91.222 121.924,91.189 121.998 C 91.113 122.168,90.207 122.721,89.561 122.991 C 89.290 123.104,89.068 123.260,89.068 123.337 C 89.068 123.414,88.962 123.477,88.833 123.477 C 88.704 123.477,88.438 123.618,88.243 123.790 C 88.048 123.963,87.428 124.336,86.865 124.619 C 86.303 124.902,85.842 125.204,85.842 125.291 C 85.842 125.377,85.728 125.448,85.588 125.448 C 85.229 125.448,84.204 126.012,83.829 126.416 C 83.518 126.752,83.507 126.752,83.199 126.416 C 83.026 126.229,82.765 126.049,82.618 126.016 C 82.471 125.984,82.309 125.889,82.258 125.806 C 82.207 125.723,81.952 125.602,81.692 125.537 C 81.431 125.472,81.052 125.264,80.850 125.075 C 80.647 124.886,80.404 124.731,80.309 124.731 C 80.215 124.731,80.111 124.671,80.078 124.597 C 80.045 124.523,79.695 124.302,79.301 124.106 C 78.907 123.909,78.544 123.704,78.495 123.648 C 78.445 123.593,78.103 123.407,77.733 123.235 C 77.363 123.063,77.061 122.845,77.061 122.751 C 77.061 122.658,76.900 122.581,76.703 122.581 C 76.505 122.581,76.344 122.519,76.344 122.444 C 76.344 122.368,76.001 122.158,75.582 121.977 C 75.164 121.796,74.780 121.596,74.731 121.532 C 74.682 121.468,74.198 121.184,73.656 120.900 C 73.114 120.616,72.630 120.330,72.581 120.264 C 72.531 120.197,72.209 120.003,71.864 119.833 C 71.140 119.476,70.559 119.132,70.430 118.982 C 70.381 118.925,70.078 118.764,69.758 118.625 C 69.438 118.485,69.176 118.322,69.176 118.263 C 69.176 118.203,68.813 118.005,68.369 117.822 C 67.926 117.639,67.563 117.425,67.563 117.347 C 67.563 117.268,67.452 117.204,67.316 117.204 C 67.180 117.204,66.969 117.083,66.846 116.935 C 66.723 116.788,66.471 116.667,66.286 116.667 C 66.101 116.667,65.950 116.586,65.950 116.487 C 65.950 116.389,65.829 116.308,65.681 116.308 C 65.533 116.308,65.412 116.228,65.412 116.129 C 65.412 116.030,65.251 115.950,65.054 115.950 C 64.857 115.950,64.695 115.871,64.695 115.774 C 64.695 115.677,64.494 115.548,64.247 115.486 C 64.001 115.424,63.799 115.301,63.799 115.214 C 63.799 115.126,63.715 115.054,63.613 115.054 C 63.510 115.054,63.257 114.896,63.051 114.704 C 62.844 114.512,62.445 114.304,62.162 114.242 C 61.880 114.180,61.649 114.055,61.649 113.964 C 61.649 113.874,61.507 113.799,61.333 113.799 C 61.160 113.799,60.922 113.645,60.804 113.457 C 60.687 113.269,60.345 113.061,60.044 112.995 C 59.744 112.929,59.498 112.801,59.498 112.710 C 59.498 112.619,59.355 112.545,59.179 112.545 C 59.004 112.545,58.747 112.388,58.609 112.196 C 58.471 112.004,58.297 111.884,58.223 111.930 C 58.150 111.976,58.039 111.931,57.977 111.831 C 57.915 111.731,57.708 111.649,57.516 111.649 C 57.325 111.649,57.168 111.568,57.168 111.470 C 57.168 111.371,57.065 111.290,56.939 111.290 C 56.813 111.290,56.597 111.133,56.459 110.941 C 56.320 110.750,56.147 110.630,56.073 110.676 C 55.999 110.721,55.888 110.677,55.826 110.576 C 55.764 110.476,55.575 110.394,55.405 110.394 C 55.236 110.394,54.981 110.233,54.839 110.036 C 54.697 109.839,54.477 109.677,54.351 109.677 C 54.225 109.677,54.122 109.606,54.122 109.518 C 54.122 109.431,53.840 109.306,53.495 109.241 C 53.150 109.176,52.867 109.056,52.867 108.974 C 52.867 108.892,52.404 108.594,51.837 108.311 C 51.270 108.027,50.685 107.675,50.538 107.527 C 50.390 107.379,50.149 107.231,50.002 107.199 C 49.855 107.166,49.693 107.086,49.643 107.020 C 49.593 106.954,49.250 106.746,48.880 106.558 C 48.510 106.370,48.208 106.148,48.208 106.065 C 48.208 105.982,48.047 105.914,47.849 105.914 C 47.652 105.914,47.490 105.853,47.489 105.780 C 47.488 105.706,47.126 105.486,46.683 105.291 C 46.240 105.097,45.878 104.892,45.878 104.835 C 45.878 104.779,45.515 104.583,45.072 104.400 C 44.628 104.218,44.265 103.999,44.265 103.916 C 44.265 103.832,44.144 103.763,43.996 103.763 C 43.849 103.763,43.728 103.683,43.728 103.584 C 43.728 103.486,43.607 103.405,43.459 103.405 C 43.311 103.405,43.190 103.324,43.190 103.226 C 43.190 103.127,43.034 103.047,42.844 103.047 C 42.654 103.047,42.378 102.926,42.230 102.778 C 42.082 102.630,41.875 102.509,41.769 102.509 C 41.663 102.509,41.577 102.428,41.577 102.330 C 41.577 102.231,41.416 102.151,41.219 102.151 C 40.864 102.151,40.860 102.032,40.863 92.070 C 40.864 86.526,40.926 82.084,40.999 82.199 C 41.073 82.314,41.354 82.464,41.624 82.532 C 41.894 82.600,42.115 82.711,42.115 82.780 C 42.115 82.934,43.827 83.871,44.108 83.871 C 44.221 83.871,44.443 84.012,44.603 84.185 C 44.942 84.551,45.933 85.125,46.227 85.125 C 46.339 85.125,46.600 85.283,46.806 85.475 C 47.012 85.667,47.473 85.961,47.829 86.129 C 48.185 86.296,48.517 86.481,48.566 86.541 C 48.718 86.723,49.462 87.106,49.462 87.001 C 49.462 86.947,49.321 86.750,49.149 86.564 C 47.563 84.851,47.544 82.193,49.104 80.399 C 49.551 79.885,51.833 78.315,52.133 78.315 C 52.220 78.315,52.337 78.196,52.394 78.049 C 52.500 77.773,52.026 77.419,51.550 77.419 C 51.404 77.419,51.257 77.356,51.225 77.278 C 51.103 76.992,49.996 76.325,49.822 76.433 C 49.723 76.494,49.642 76.459,49.642 76.355 C 49.642 76.250,49.550 76.165,49.439 76.165 C 49.327 76.165,49.085 75.991,48.901 75.779 C 48.717 75.567,48.566 75.448,48.566 75.514 C 48.566 75.581,48.378 75.512,48.149 75.362 C 47.919 75.211,47.677 75.142,47.611 75.208 C 47.545 75.275,47.491 75.234,47.491 75.119 C 47.491 75.004,47.370 74.910,47.222 74.910 C 47.074 74.910,46.953 74.843,46.953 74.760 C 46.953 74.613,45.198 73.656,44.927 73.656 C 44.851 73.656,44.611 73.492,44.396 73.291 C 44.180 73.090,43.820 72.879,43.597 72.823 C 43.373 72.767,43.190 72.649,43.190 72.561 C 43.190 72.473,43.029 72.401,42.832 72.401 C 42.634 72.401,42.473 72.330,42.473 72.244 C 42.473 72.157,42.030 71.861,41.487 71.587 C 40.945 71.313,40.502 71.021,40.502 70.938 C 40.502 70.856,40.381 70.789,40.233 70.789 C 40.085 70.789,39.964 70.727,39.964 70.652 C 39.964 70.576,39.621 70.366,39.203 70.185 C 38.784 70.004,38.401 69.803,38.351 69.739 C 38.302 69.674,37.798 69.383,37.231 69.092 C 36.664 68.801,36.201 68.514,36.201 68.454 C 36.201 68.395,35.918 68.236,35.573 68.100 C 35.228 67.965,34.945 67.809,34.945 67.753 C 34.944 67.698,34.581 67.493,34.138 67.299 C 33.695 67.104,33.333 66.882,33.333 66.806 C 33.333 66.729,33.212 66.667,33.065 66.667 C 32.917 66.667,32.796 66.586,32.796 66.487 C 32.796 66.389,32.640 66.308,32.450 66.308 C 32.260 66.308,31.983 66.187,31.836 66.039 C 31.688 65.892,31.480 65.771,31.375 65.771 C 31.269 65.771,31.183 65.690,31.183 65.591 C 31.183 65.493,31.062 65.412,30.914 65.412 C 30.321 65.412,30.791 64.960,31.765 64.593 C 31.938 64.528,32.079 64.403,32.079 64.316 C 32.079 64.229,32.240 64.158,32.437 64.158 C 32.634 64.158,32.796 64.077,32.796 63.978 C 32.796 63.880,32.911 63.799,33.052 63.799 C 33.193 63.799,33.414 63.694,33.545 63.564 C 33.675 63.435,34.043 63.214,34.364 63.072 C 34.684 62.931,34.946 62.764,34.946 62.700 C 34.946 62.636,35.148 62.533,35.394 62.471 C 35.641 62.409,35.842 62.280,35.842 62.183 C 35.842 62.086,36.004 62.007,36.201 62.007 C 36.398 62.007,36.559 61.927,36.559 61.828 C 36.559 61.729,36.680 61.649,36.828 61.649 C 36.976 61.649,37.097 61.568,37.097 61.470 C 37.097 61.371,37.248 61.290,37.433 61.290 C 37.618 61.290,37.870 61.169,37.993 61.022 C 38.116 60.874,38.327 60.753,38.463 60.753 C 38.599 60.753,38.710 60.691,38.710 60.616 C 38.710 60.540,39.044 60.319,39.453 60.123 C 40.638 59.556,40.860 59.422,40.860 59.277 C 40.860 59.201,41.022 59.140,41.219 59.140 C 41.416 59.140,41.577 59.061,41.577 58.964 C 41.577 58.867,41.779 58.738,42.025 58.676 C 42.272 58.614,42.473 58.511,42.473 58.447 C 42.473 58.383,42.735 58.216,43.056 58.074 C 43.376 57.933,43.745 57.712,43.875 57.583 C 44.005 57.453,44.227 57.348,44.368 57.348 C 44.508 57.348,44.624 57.282,44.624 57.202 C 44.624 57.122,44.906 56.945,45.251 56.810 C 45.596 56.675,45.878 56.510,45.878 56.445 C 45.878 56.380,46.241 56.177,46.685 55.994 C 47.128 55.811,47.491 55.597,47.491 55.519 C 47.491 55.440,47.612 55.376,47.760 55.376 C 47.908 55.376,48.029 55.308,48.029 55.224 C 48.029 55.140,48.392 54.922,48.835 54.739 C 49.279 54.556,49.642 54.343,49.642 54.264 C 49.642 54.186,49.803 54.122,50.000 54.122 C 50.197 54.122,50.358 54.043,50.358 53.946 C 50.358 53.849,50.560 53.720,50.806 53.658 C 51.053 53.596,51.254 53.473,51.254 53.386 C 51.254 53.298,51.346 53.226,51.457 53.226 C 51.569 53.226,51.791 53.075,51.950 52.891 C 52.110 52.708,52.503 52.499,52.823 52.429 C 53.143 52.359,53.405 52.227,53.405 52.136 C 53.405 52.046,53.511 51.971,53.640 51.971 C 53.769 51.971,54.038 51.820,54.236 51.635 C 54.435 51.450,54.764 51.246,54.967 51.181 C 55.415 51.039,56.272 50.269,56.272 50.009 C 56.272 49.905,56.340 49.821,56.423 49.821 C 56.650 49.821,56.945 49.071,57.085 48.140 C 57.235 47.138,57.027 44.938,56.796 45.081 C 56.705 45.137,56.631 45.054,56.631 44.896 C 56.631 44.524,55.310 43.190,54.942 43.190 C 54.787 43.190,54.659 43.109,54.659 43.011 C 54.659 42.912,54.539 42.832,54.391 42.832 C 54.243 42.832,54.122 42.762,54.122 42.677 C 54.122 42.592,53.436 42.507,52.599 42.488 C 51.632 42.467,51.075 42.524,51.075 42.643 M78.315 91.398 C 78.315 91.496,78.172 91.577,77.997 91.577 C 77.628 91.577,77.061 92.175,77.061 92.565 C 77.061 92.711,76.984 92.832,76.891 92.832 C 76.664 92.832,76.635 104.963,76.861 105.046 C 76.953 105.080,77.056 105.269,77.089 105.466 C 77.222 106.244,78.634 106.961,79.535 106.708 C 79.800 106.634,80.119 106.589,80.242 106.609 C 80.365 106.630,80.466 106.582,80.466 106.503 C 80.466 106.424,80.728 106.246,81.048 106.106 C 81.369 105.967,81.671 105.806,81.720 105.749 C 81.868 105.578,82.484 105.219,83.199 104.887 C 83.569 104.715,83.871 104.513,83.871 104.438 C 83.871 104.363,84.022 104.301,84.207 104.301 C 84.393 104.301,84.644 104.180,84.767 104.032 C 84.890 103.884,85.101 103.763,85.237 103.763 C 85.373 103.763,85.484 103.683,85.484 103.584 C 85.484 103.486,85.605 103.405,85.753 103.405 C 85.901 103.405,86.022 103.337,86.022 103.253 C 86.022 103.169,86.364 102.950,86.783 102.765 C 87.202 102.580,87.585 102.387,87.634 102.335 C 87.745 102.218,88.420 101.824,89.228 101.404 C 89.959 101.024,90.502 100.471,90.502 100.108 C 90.502 99.962,90.582 99.792,90.681 99.731 C 91.404 99.284,90.120 96.595,89.183 96.595 C 89.021 96.595,88.889 96.534,88.889 96.460 C 88.889 96.385,88.627 96.209,88.306 96.067 C 87.986 95.926,87.617 95.705,87.487 95.576 C 87.357 95.446,87.135 95.341,86.994 95.341 C 86.854 95.341,86.738 95.260,86.738 95.161 C 86.738 95.063,86.572 94.982,86.369 94.982 C 86.166 94.982,86.040 94.917,86.089 94.838 C 86.138 94.759,85.821 94.537,85.385 94.345 C 84.948 94.153,84.590 93.936,84.590 93.862 C 84.589 93.788,84.463 93.728,84.312 93.728 C 84.160 93.728,83.859 93.563,83.643 93.362 C 83.427 93.161,83.068 92.951,82.844 92.895 C 82.620 92.839,82.437 92.721,82.437 92.633 C 82.437 92.545,82.313 92.473,82.161 92.473 C 82.009 92.473,81.707 92.306,81.489 92.102 C 81.271 91.898,80.871 91.687,80.600 91.632 C 80.329 91.577,80.108 91.462,80.108 91.375 C 80.108 91.289,79.704 91.219,79.211 91.219 C 78.719 91.219,78.315 91.299,78.315 91.398 " stroke="none" fill="#55bca4" fill-rule="evenodd"></path><path id="path2" d="M165.097 118.062 C 164.376 118.175,164.087 119.039,164.515 119.801 C 164.713 120.153,164.875 120.560,164.875 120.704 C 164.875 120.849,164.955 120.968,165.054 120.968 C 165.152 120.968,165.233 121.134,165.233 121.338 C 165.233 121.541,165.435 122.148,165.681 122.687 C 165.927 123.226,166.129 123.790,166.129 123.941 C 166.129 124.091,166.210 124.165,166.308 124.104 C 166.408 124.042,166.488 124.177,166.489 124.407 C 166.489 124.635,166.610 125.052,166.757 125.334 C 166.905 125.616,167.025 125.959,167.025 126.096 C 167.025 126.232,167.106 126.344,167.204 126.344 C 167.303 126.344,167.384 126.456,167.384 126.592 C 167.384 126.729,167.504 127.072,167.651 127.354 C 167.798 127.636,167.919 128.009,167.920 128.181 C 167.921 128.353,168.002 128.495,168.100 128.495 C 168.199 128.495,168.280 128.617,168.280 128.766 C 168.280 128.915,168.351 129.177,168.438 129.348 C 168.813 130.086,169.241 131.234,169.204 131.407 C 169.188 131.481,169.256 131.541,169.355 131.541 C 169.453 131.541,169.534 131.692,169.534 131.875 C 169.534 132.797,171.021 133.552,171.783 133.017 C 172.074 132.813,172.939 130.924,172.939 130.493 C 172.939 130.281,173.020 130.108,173.118 130.108 C 173.217 130.108,173.297 129.946,173.297 129.749 C 173.297 129.552,173.378 129.391,173.477 129.391 C 173.575 129.391,173.656 129.189,173.656 128.943 C 173.656 128.696,173.726 128.495,173.813 128.495 C 173.899 128.495,174.022 128.233,174.086 127.914 C 174.233 127.176,174.599 126.344,174.775 126.344 C 174.849 126.344,174.910 126.188,174.910 125.996 C 174.910 125.805,174.984 125.603,175.074 125.547 C 175.164 125.492,175.292 125.124,175.359 124.730 C 175.425 124.336,175.553 124.014,175.643 124.014 C 175.733 124.014,175.806 123.813,175.806 123.566 C 175.806 123.320,175.878 123.118,175.965 123.118 C 176.052 123.118,176.273 122.635,176.457 122.045 C 176.641 121.454,176.853 120.970,176.927 120.969 C 177.000 120.968,177.061 120.806,177.061 120.609 C 177.061 120.412,177.142 120.251,177.240 120.251 C 177.339 120.251,177.419 120.054,177.419 119.813 C 177.419 119.573,177.493 119.330,177.584 119.274 C 177.831 119.122,177.287 118.154,176.896 118.052 C 176.095 117.843,174.910 118.589,174.910 119.304 C 174.910 119.394,174.747 119.805,174.547 120.218 C 174.348 120.632,174.136 121.211,174.077 121.506 C 174.018 121.802,173.899 122.043,173.813 122.043 C 173.726 122.043,173.656 122.245,173.656 122.491 C 173.656 122.737,173.591 122.939,173.512 122.939 C 173.433 122.939,173.225 123.362,173.049 123.880 C 172.686 124.950,172.587 125.200,172.054 126.402 C 171.843 126.878,171.623 127.503,171.565 127.791 C 171.508 128.079,171.390 128.315,171.304 128.315 C 171.218 128.315,171.147 128.517,171.147 128.763 C 171.147 129.010,171.066 129.211,170.968 129.211 C 170.869 129.211,170.789 129.050,170.789 128.853 C 170.789 128.656,170.718 128.495,170.632 128.495 C 170.546 128.495,170.424 128.172,170.361 127.778 C 170.298 127.384,170.167 127.061,170.070 127.061 C 169.972 127.061,169.892 126.899,169.892 126.700 C 169.892 126.360,169.575 125.645,169.336 125.448 C 169.276 125.399,169.172 125.057,169.104 124.689 C 168.997 124.108,168.818 123.668,168.090 122.199 C 168.011 122.039,167.891 121.616,167.824 121.259 C 167.757 120.902,167.630 120.609,167.543 120.609 C 167.455 120.609,167.376 120.468,167.367 120.296 C 167.305 119.084,166.105 117.904,165.097 118.062 M224.910 118.040 C 224.664 118.090,224.386 118.205,224.292 118.295 C 224.198 118.385,223.936 118.459,223.710 118.459 C 223.483 118.459,223.297 118.522,223.297 118.599 C 223.297 118.677,223.076 118.874,222.805 119.038 C 221.686 119.716,220.789 120.886,220.789 121.667 C 220.789 121.874,220.708 122.043,220.609 122.043 C 220.496 122.043,220.430 123.294,220.430 125.437 C 220.430 127.507,220.500 128.875,220.609 128.943 C 220.708 129.004,220.789 129.218,220.789 129.418 C 220.789 130.091,222.117 131.875,222.633 131.894 C 222.711 131.897,222.948 132.061,223.160 132.258 C 223.371 132.455,223.674 132.616,223.833 132.616 C 223.992 132.616,224.223 132.717,224.346 132.841 C 224.891 133.387,230.645 132.992,230.645 132.409 C 230.645 132.326,230.806 132.258,231.004 132.258 C 231.201 132.258,231.362 132.191,231.362 132.109 C 231.362 132.027,231.564 131.852,231.810 131.720 C 232.056 131.589,232.258 131.403,232.258 131.308 C 232.258 131.213,232.406 131.005,232.586 130.845 C 233.696 129.865,233.384 128.853,231.972 128.853 C 231.439 128.853,231.004 128.914,231.003 128.987 C 231.003 129.218,229.861 130.402,229.391 130.659 C 228.213 131.301,225.986 131.644,225.986 131.183 C 225.986 131.084,225.802 131.004,225.578 131.004 C 224.973 131.004,223.477 129.896,223.477 129.448 C 223.477 129.318,223.409 129.211,223.327 129.211 C 223.153 129.211,223.134 129.120,223.005 127.688 C 222.951 127.097,222.834 126.536,222.744 126.443 C 222.523 126.212,222.536 124.780,222.760 124.642 C 222.858 124.581,222.939 124.130,222.939 123.640 C 222.939 122.201,223.977 120.430,224.819 120.430 C 224.968 120.430,225.090 120.349,225.090 120.251 C 225.090 120.152,225.246 120.072,225.437 120.072 C 225.629 120.072,225.835 119.991,225.896 119.892 C 226.380 119.109,229.585 120.205,230.657 121.520 C 231.678 122.773,233.157 122.508,233.240 121.057 C 233.268 120.578,231.438 118.817,230.912 118.817 C 230.765 118.817,230.645 118.754,230.645 118.677 C 230.645 118.200,226.433 117.732,224.910 118.040 M337.908 118.065 C 337.273 118.204,336.694 119.713,337.276 119.713 C 337.375 119.713,337.455 119.915,337.455 120.161 C 337.455 120.408,337.536 120.609,337.634 120.609 C 337.733 120.609,337.814 120.750,337.815 120.923 C 337.815 121.095,337.936 121.468,338.084 121.750 C 338.231 122.032,338.351 122.375,338.351 122.512 C 338.351 122.648,338.432 122.760,338.530 122.760 C 338.629 122.760,338.710 122.921,338.710 123.118 C 338.710 123.315,338.781 123.477,338.869 123.477 C 338.956 123.477,339.082 123.840,339.148 124.283 C 339.215 124.727,339.345 125.090,339.438 125.090 C 339.530 125.090,339.606 125.208,339.606 125.353 C 339.606 125.498,339.757 125.886,339.943 126.216 C 340.128 126.546,340.336 127.072,340.405 127.385 C 340.473 127.697,340.604 127.999,340.695 128.055 C 340.786 128.111,340.860 128.314,340.860 128.505 C 340.860 128.697,340.941 128.853,341.039 128.853 C 341.138 128.853,341.219 129.055,341.219 129.301 C 341.219 129.547,341.290 129.749,341.378 129.749 C 341.466 129.749,341.590 130.031,341.655 130.376 C 341.720 130.721,341.850 131.004,341.944 131.004 C 342.038 131.004,342.115 131.205,342.115 131.452 C 342.115 131.698,342.195 131.900,342.294 131.900 C 342.392 131.900,342.473 132.020,342.473 132.166 C 342.473 132.706,343.067 133.154,343.780 133.154 C 344.633 133.154,344.857 132.938,345.277 131.707 C 345.460 131.172,345.670 130.708,345.744 130.675 C 345.818 130.642,345.878 130.465,345.878 130.282 C 345.878 130.099,345.959 129.900,346.057 129.839 C 346.156 129.778,346.237 129.571,346.237 129.380 C 346.237 129.189,346.308 129.032,346.396 129.032 C 346.483 129.032,346.608 128.751,346.672 128.408 C 346.737 128.064,346.940 127.479,347.123 127.108 C 347.651 126.043,348.029 125.141,348.029 124.946 C 348.029 124.848,348.267 124.314,348.559 123.759 C 348.851 123.205,349.142 122.471,349.206 122.128 C 349.270 121.786,349.395 121.505,349.482 121.505 C 349.570 121.505,349.642 121.304,349.642 121.057 C 349.642 120.811,349.722 120.609,349.821 120.609 C 349.919 120.609,350.000 120.461,350.000 120.281 C 350.000 120.100,350.058 119.894,350.130 119.822 C 350.495 119.457,350.319 118.513,349.830 118.224 C 348.959 117.710,347.858 118.214,347.852 119.131 C 347.851 119.353,347.769 119.534,347.670 119.534 C 347.572 119.534,347.491 119.640,347.491 119.769 C 347.491 119.899,347.289 120.423,347.043 120.933 C 346.797 121.444,346.595 122.024,346.595 122.221 C 346.595 122.419,346.514 122.581,346.416 122.581 C 346.317 122.581,346.237 122.703,346.237 122.852 C 346.237 123.001,346.163 123.263,346.072 123.434 C 345.743 124.059,345.341 125.059,345.341 125.254 C 345.341 125.363,345.267 125.593,345.177 125.764 C 344.673 126.720,344.086 128.193,344.086 128.500 C 344.086 128.734,343.965 128.853,343.728 128.853 C 343.465 128.853,343.369 128.734,343.369 128.405 C 343.369 128.159,343.298 127.957,343.210 127.957 C 343.122 127.957,342.998 127.676,342.933 127.332 C 342.869 126.989,342.647 126.364,342.440 125.944 C 341.922 124.892,341.795 124.554,341.663 123.880 C 341.600 123.560,341.474 123.297,341.384 123.297 C 341.293 123.297,341.219 123.141,341.219 122.950 C 341.219 122.758,341.138 122.552,341.039 122.491 C 340.941 122.430,340.860 122.224,340.860 122.032 C 340.860 121.841,340.780 121.685,340.681 121.685 C 340.582 121.685,340.502 121.533,340.502 121.348 C 340.502 121.164,340.300 120.556,340.054 119.999 C 339.807 119.442,339.606 118.881,339.606 118.753 C 339.606 118.370,338.520 117.931,337.908 118.065 M252.089 118.428 C 251.823 118.721,251.793 119.474,251.798 125.552 C 251.804 133.079,251.788 132.975,252.920 132.975 C 254.087 132.975,254.301 132.409,254.301 129.318 L 254.301 126.703 257.885 126.703 L 261.470 126.703 261.470 129.480 C 261.470 131.213,261.537 132.258,261.649 132.258 C 261.747 132.258,261.828 132.370,261.828 132.508 C 261.828 133.043,263.346 133.165,263.729 132.661 C 263.917 132.414,263.968 130.910,263.973 125.503 L 263.978 118.658 263.580 118.379 C 262.097 117.340,261.470 118.383,261.470 121.888 L 261.470 124.731 257.885 124.731 L 254.301 124.731 254.301 121.953 C 254.301 120.426,254.306 119.129,254.313 119.072 C 254.390 118.402,252.585 117.880,252.089 118.428 M285.528 118.227 C 284.783 118.370,284.752 118.688,284.806 125.813 C 284.862 133.361,284.793 132.967,286.056 132.972 C 287.285 132.977,287.276 133.030,287.276 125.511 L 287.276 118.843 286.804 118.472 C 286.328 118.098,286.264 118.085,285.528 118.227 M308.271 118.435 C 307.713 118.919,307.659 132.176,308.213 132.678 C 308.503 132.940,309.167 132.975,313.935 132.975 L 319.329 132.975 319.612 132.406 C 320.247 131.133,319.797 131.004,314.754 131.004 L 310.394 131.004 310.394 128.495 L 310.394 125.986 314.497 125.986 C 318.950 125.986,318.817 126.016,318.817 124.981 C 318.817 124.294,318.223 124.194,314.146 124.194 L 310.394 124.194 310.394 122.133 L 310.394 120.072 314.471 120.066 C 318.961 120.060,319.176 120.012,319.176 119.028 C 319.176 118.142,318.927 118.100,313.570 118.100 C 309.031 118.100,308.628 118.126,308.271 118.435 M369.176 118.215 C 368.524 118.397,368.459 119.076,368.459 125.637 L 368.459 132.027 368.898 132.501 L 369.338 132.975 374.680 132.975 C 380.584 132.975,380.649 132.961,380.359 131.803 C 380.172 131.061,379.809 131.004,375.281 131.004 L 370.968 131.004 370.968 128.498 L 370.968 125.992 375.134 125.944 L 379.301 125.896 379.355 125.159 C 379.425 124.205,379.368 124.194,374.619 124.194 L 370.968 124.194 370.968 122.133 L 370.968 120.072 375.098 120.072 L 379.228 120.072 379.697 119.603 C 380.145 119.155,380.153 119.113,379.879 118.662 L 379.593 118.190 374.519 118.165 C 371.728 118.151,369.323 118.173,369.176 118.215 " stroke="none" fill="#646464" fill-rule="evenodd"></path><path id="path3" d="M244.220 46.770 L 243.548 47.497 243.548 49.734 L 243.548 51.971 233.065 51.971 C 226.195 51.971,222.581 52.033,222.581 52.151 C 222.581 52.249,222.393 52.330,222.164 52.330 C 220.870 52.330,220.277 55.418,221.363 56.504 C 221.629 56.771,221.932 56.989,222.035 56.989 C 222.138 56.989,222.222 57.070,222.222 57.168 C 222.222 57.286,225.896 57.348,232.885 57.348 L 243.548 57.348 243.548 59.849 L 243.548 62.351 233.699 62.403 L 223.849 62.455 223.215 63.128 C 222.866 63.498,222.581 63.961,222.581 64.158 C 222.581 64.355,222.500 64.516,222.401 64.516 C 222.114 64.516,222.158 104.554,222.446 105.051 C 223.573 106.996,226.421 107.437,227.148 105.780 C 227.246 105.558,227.387 105.376,227.462 105.376 C 227.537 105.376,227.599 96.868,227.599 86.470 L 227.599 67.563 246.147 67.563 L 264.695 67.563 264.695 83.973 C 264.695 97.957,264.657 100.422,264.439 100.640 C 264.154 100.925,263.515 100.983,263.363 100.736 C 263.309 100.648,262.457 100.519,261.470 100.448 C 260.482 100.377,259.630 100.248,259.576 100.160 C 259.449 99.955,257.348 99.949,257.348 100.153 C 257.348 100.238,257.086 100.381,256.765 100.471 C 256.270 100.611,256.157 100.750,256.014 101.393 C 255.921 101.810,255.780 102.151,255.700 102.151 C 255.621 102.151,255.556 102.352,255.556 102.599 C 255.556 102.845,255.636 103.047,255.735 103.047 C 255.833 103.047,255.914 103.256,255.914 103.512 C 255.914 104.133,256.454 105.018,256.834 105.018 C 257.001 105.018,257.165 105.095,257.198 105.188 C 257.231 105.282,258.004 105.414,258.916 105.483 C 259.828 105.551,260.573 105.676,260.573 105.760 C 260.573 105.845,261.057 105.914,261.649 105.914 C 262.246 105.914,262.724 105.994,262.724 106.093 C 262.724 106.198,263.321 106.272,264.158 106.272 C 264.994 106.272,265.591 106.198,265.591 106.093 C 265.591 105.995,265.793 105.914,266.039 105.914 C 266.286 105.914,266.487 105.843,266.487 105.757 C 266.487 105.671,266.710 105.556,266.982 105.501 C 267.508 105.396,268.996 104.100,268.996 103.747 C 268.996 103.631,269.178 103.379,269.400 103.187 L 269.803 102.837 269.852 83.391 L 269.900 63.944 269.135 63.200 L 268.369 62.455 258.647 62.406 L 248.925 62.357 248.925 59.852 L 248.925 57.348 259.505 57.348 L 270.086 57.348 270.796 56.624 C 271.496 55.909,271.925 53.226,271.338 53.226 C 271.246 53.226,271.119 53.061,271.055 52.860 C 270.986 52.643,270.726 52.452,270.416 52.390 C 270.128 52.332,269.892 52.214,269.892 52.128 C 269.892 52.040,265.280 51.971,259.409 51.971 L 248.925 51.971 248.925 49.910 C 248.925 48.656,248.855 47.849,248.746 47.849 C 248.647 47.849,248.566 47.660,248.566 47.429 C 248.566 46.531,247.978 46.178,246.367 46.107 L 244.892 46.042 244.220 46.770 M348.387 46.774 C 348.387 46.873,348.226 46.953,348.030 46.953 C 347.536 46.953,346.813 47.623,346.687 48.198 C 346.629 48.461,346.423 48.790,346.230 48.929 C 346.036 49.069,345.878 49.327,345.878 49.502 C 345.878 49.677,345.804 49.821,345.713 49.821 C 345.622 49.821,345.491 50.083,345.422 50.403 C 345.235 51.263,345.340 51.249,339.292 51.252 C 335.680 51.254,333.692 51.318,333.692 51.434 C 333.692 51.532,333.530 51.613,333.333 51.613 C 333.093 51.613,332.975 51.732,332.975 51.977 C 332.975 52.177,332.854 52.387,332.706 52.444 C 332.392 52.565,332.307 55.018,332.616 55.018 C 332.715 55.018,332.796 55.169,332.796 55.354 C 332.796 55.766,333.089 56.025,333.738 56.188 C 334.008 56.256,334.229 56.383,334.229 56.471 C 334.229 56.560,335.939 56.631,338.066 56.631 L 341.902 56.631 341.709 57.258 C 341.604 57.603,341.450 57.885,341.368 57.885 C 341.286 57.885,341.219 58.047,341.219 58.244 C 341.219 58.441,341.138 58.602,341.039 58.602 C 340.941 58.602,340.860 58.723,340.860 58.871 C 340.860 59.019,340.780 59.140,340.681 59.140 C 340.582 59.140,340.502 59.291,340.502 59.476 C 340.502 59.661,340.381 59.913,340.233 60.036 C 340.085 60.159,339.964 60.370,339.964 60.506 C 339.964 60.642,339.903 60.753,339.827 60.753 C 339.683 60.753,339.068 62.061,339.068 62.367 C 339.068 62.465,338.987 62.545,338.889 62.545 C 338.790 62.545,338.710 62.688,338.710 62.864 C 338.710 63.039,338.549 63.299,338.352 63.440 C 338.155 63.582,337.945 63.963,337.884 64.286 C 337.823 64.610,337.702 64.875,337.614 64.875 C 337.527 64.875,337.455 64.996,337.455 65.143 C 337.455 65.291,337.375 65.412,337.276 65.412 C 337.177 65.412,337.097 65.573,337.097 65.771 C 337.097 65.968,337.016 66.129,336.918 66.129 C 336.819 66.129,336.738 66.244,336.738 66.385 C 336.738 66.526,336.638 66.748,336.514 66.878 C 336.391 67.008,336.169 67.357,336.022 67.652 C 335.874 67.948,335.672 68.248,335.574 68.318 C 335.295 68.517,335.337 73.697,335.618 73.790 C 335.741 73.831,335.842 74.020,335.842 74.208 C 335.842 74.397,335.923 74.552,336.022 74.552 C 336.120 74.552,336.201 74.636,336.201 74.739 C 336.201 74.841,336.302 75.047,336.425 75.195 C 336.977 75.861,337.484 76.344,337.630 76.344 C 337.718 76.344,337.841 76.505,337.903 76.703 C 337.966 76.900,338.166 77.061,338.348 77.061 C 338.531 77.061,338.709 77.150,338.745 77.258 C 338.782 77.366,339.191 77.497,339.656 77.550 C 340.121 77.602,340.502 77.715,340.502 77.801 C 340.502 77.887,343.842 77.957,347.939 77.957 L 355.376 77.957 355.376 83.333 L 355.376 88.710 344.611 88.710 C 336.251 88.710,333.790 88.760,333.596 88.934 C 333.090 89.387,332.880 89.595,332.661 89.858 C 332.393 90.181,332.354 92.473,332.616 92.473 C 332.715 92.473,332.796 92.582,332.796 92.715 C 332.796 93.106,333.435 93.728,333.837 93.728 C 334.041 93.728,334.258 93.808,334.319 93.907 C 334.391 94.023,338.111 94.086,344.894 94.086 L 355.358 94.086 355.412 99.879 C 355.469 106.012,355.507 106.272,356.334 106.272 C 356.481 106.272,356.635 106.373,356.676 106.496 C 356.726 106.646,357.155 106.720,357.975 106.720 C 358.795 106.720,359.224 106.646,359.274 106.496 C 359.315 106.373,359.483 106.272,359.648 106.271 C 360.470 106.268,360.573 105.523,360.573 99.627 L 360.573 94.086 371.047 94.086 C 377.836 94.086,381.559 94.023,381.631 93.907 C 381.692 93.808,381.909 93.728,382.113 93.728 C 382.515 93.728,383.154 93.106,383.154 92.715 C 383.154 92.582,383.235 92.473,383.333 92.473 C 383.436 92.473,383.513 91.935,383.513 91.219 C 383.513 90.529,383.438 89.964,383.346 89.964 C 383.254 89.964,383.153 89.783,383.122 89.561 C 383.085 89.302,382.920 89.137,382.661 89.100 C 382.440 89.069,382.258 88.968,382.258 88.876 C 382.258 88.775,377.984 88.710,371.416 88.710 L 360.573 88.710 360.573 83.333 L 360.573 77.957 371.237 77.957 C 377.210 77.957,381.900 77.888,381.900 77.800 C 381.900 77.714,382.135 77.596,382.423 77.539 C 382.733 77.477,382.993 77.285,383.062 77.068 C 383.126 76.867,383.253 76.703,383.345 76.703 C 383.943 76.703,383.502 74.060,382.782 73.326 L 382.051 72.581 371.321 72.581 L 360.591 72.581 360.538 68.226 L 360.484 63.872 360.026 63.432 C 359.308 62.743,358.849 62.545,357.975 62.545 C 357.101 62.545,356.642 62.743,355.924 63.432 L 355.466 63.872 355.412 68.226 L 355.359 72.581 348.487 72.581 L 341.615 72.581 341.058 72.061 C 340.420 71.465,340.323 70.722,340.825 70.272 C 341.159 69.971,341.756 68.821,341.756 68.477 C 341.756 68.368,341.837 68.280,341.935 68.280 C 342.034 68.280,342.115 68.118,342.115 67.921 C 342.115 67.724,342.195 67.563,342.294 67.563 C 342.392 67.563,342.473 67.442,342.473 67.294 C 342.473 67.146,342.552 67.025,342.649 67.025 C 342.746 67.025,342.875 66.823,342.937 66.577 C 342.999 66.331,343.122 66.129,343.209 66.129 C 343.297 66.129,343.369 65.968,343.369 65.771 C 343.369 65.573,343.431 65.412,343.506 65.412 C 343.639 65.412,344.265 64.114,344.265 63.838 C 344.265 63.761,344.427 63.583,344.624 63.441 C 344.821 63.299,344.982 63.039,344.982 62.864 C 344.982 62.688,345.059 62.545,345.153 62.545 C 345.247 62.545,345.377 62.263,345.442 61.918 C 345.507 61.573,345.631 61.290,345.719 61.290 C 345.806 61.290,345.878 61.169,345.878 61.022 C 345.878 60.874,345.959 60.753,346.057 60.753 C 346.156 60.753,346.237 60.600,346.237 60.413 C 346.237 60.227,346.358 60.028,346.505 59.971 C 346.653 59.914,346.774 59.704,346.774 59.504 C 346.774 59.304,346.840 59.140,346.920 59.140 C 347.000 59.140,347.176 58.858,347.312 58.513 C 347.447 58.168,347.620 57.885,347.696 57.885 C 347.771 57.885,347.886 57.603,347.951 57.258 L 348.069 56.631 364.794 56.631 C 375.752 56.631,381.558 56.569,381.631 56.452 C 381.692 56.353,381.926 56.272,382.151 56.272 C 382.618 56.272,383.154 55.762,383.154 55.317 C 383.154 55.153,383.235 55.018,383.333 55.018 C 383.436 55.018,383.513 54.480,383.513 53.763 C 383.513 53.073,383.441 52.509,383.354 52.509 C 383.267 52.509,383.152 52.342,383.099 52.137 C 383.045 51.933,382.834 51.722,382.630 51.668 C 382.425 51.615,382.258 51.500,382.258 51.413 C 382.258 51.322,375.613 51.254,366.770 51.254 L 351.282 51.254 351.560 50.697 C 351.872 50.072,351.789 47.998,351.447 47.884 C 351.341 47.848,351.254 47.705,351.254 47.566 C 351.254 47.426,351.093 47.312,350.896 47.312 C 350.699 47.312,350.538 47.231,350.538 47.133 C 350.538 47.034,350.417 46.953,350.269 46.953 C 350.121 46.953,350.000 46.873,350.000 46.774 C 350.000 46.676,349.637 46.595,349.194 46.595 C 348.750 46.595,348.387 46.676,348.387 46.774 M187.097 47.670 C 187.097 47.769,187.010 47.849,186.905 47.849 C 186.657 47.849,186.201 48.305,186.201 48.554 C 186.201 48.659,186.120 48.746,186.022 48.746 C 185.908 48.746,185.842 50.030,185.842 52.240 L 185.842 55.735 182.706 55.735 C 180.735 55.735,179.570 55.801,179.570 55.914 C 179.570 56.013,179.461 56.093,179.328 56.093 C 178.973 56.093,178.315 56.717,178.315 57.055 C 178.315 57.216,178.250 57.348,178.169 57.348 C 177.676 57.348,178.155 59.723,178.765 60.304 C 179.556 61.057,179.830 61.111,182.883 61.111 L 185.842 61.111 185.842 67.473 L 185.842 73.835 183.781 73.858 C 182.648 73.870,181.660 73.897,181.586 73.918 C 180.789 74.142,179.154 75.578,179.291 75.934 C 179.340 76.061,179.301 76.165,179.206 76.165 C 178.847 76.165,178.984 103.521,179.345 104.083 C 179.873 104.903,180.431 105.378,180.999 105.492 C 181.297 105.552,181.541 105.671,181.541 105.757 C 181.541 105.844,184.387 105.914,187.903 105.914 C 191.419 105.914,194.265 105.844,194.265 105.757 C 194.265 105.671,194.509 105.552,194.807 105.492 C 195.345 105.384,196.237 104.656,196.237 104.324 C 196.237 104.229,196.337 104.118,196.461 104.077 C 196.637 104.018,196.685 101.024,196.685 89.909 L 196.685 75.816 195.968 75.087 C 195.354 74.463,194.765 74.069,194.220 73.917 C 194.147 73.897,193.441 73.870,192.652 73.858 L 191.219 73.835 191.219 67.473 L 191.219 61.111 194.176 61.111 C 196.027 61.111,197.133 61.044,197.133 60.932 C 197.133 60.833,197.288 60.753,197.479 60.753 C 197.669 60.753,197.875 60.596,197.936 60.403 C 197.997 60.211,198.204 60.004,198.396 59.943 C 198.783 59.821,198.946 56.989,198.566 56.989 C 198.468 56.989,198.387 56.837,198.387 56.650 C 198.387 56.438,198.219 56.269,197.939 56.199 C 197.693 56.137,197.491 56.007,197.491 55.911 C 197.491 55.802,196.286 55.735,194.355 55.735 L 191.219 55.735 191.219 52.599 C 191.219 50.627,191.152 49.462,191.039 49.462 C 190.941 49.462,190.860 49.298,190.860 49.096 C 190.860 48.729,190.708 48.489,190.065 47.841 C 189.683 47.456,187.097 47.308,187.097 47.670 M166.487 49.283 C 166.487 49.382,166.335 49.462,166.148 49.462 C 165.936 49.462,165.767 49.630,165.697 49.910 C 165.635 50.157,165.505 50.358,165.409 50.358 C 165.164 50.358,165.188 52.626,165.438 53.103 C 165.551 53.318,166.471 54.315,167.482 55.318 C 168.494 56.321,169.284 57.179,169.238 57.225 C 169.193 57.271,170.021 58.184,171.078 59.255 L 173.001 61.201 174.389 61.201 C 175.930 61.201,176.703 60.771,176.703 59.915 C 176.703 59.686,176.783 59.498,176.882 59.498 C 176.980 59.498,177.061 59.135,177.061 58.692 C 177.061 58.248,176.980 57.885,176.882 57.885 C 176.783 57.885,176.703 57.687,176.703 57.445 C 176.703 57.203,176.503 56.820,176.259 56.594 C 175.799 56.167,175.746 56.115,175.014 55.376 C 174.769 55.130,174.465 54.831,174.337 54.713 C 173.980 54.382,173.656 53.970,173.656 53.846 C 173.656 53.758,172.306 52.312,171.344 51.369 C 171.258 51.284,170.996 51.024,170.764 50.791 C 170.531 50.559,170.249 50.276,170.136 50.164 C 169.101 49.129,169.045 49.104,167.750 49.104 C 167.028 49.104,166.487 49.181,166.487 49.283 M200.538 50.323 C 199.611 51.346,199.653 50.369,199.601 72.028 C 199.562 88.094,199.505 92.369,199.328 92.428 C 199.182 92.477,199.104 92.874,199.104 93.563 C 199.104 94.151,199.024 94.624,198.925 94.624 C 198.826 94.624,198.746 95.067,198.746 95.609 C 198.746 96.151,198.672 96.595,198.582 96.595 C 198.493 96.595,198.362 97.280,198.292 98.118 C 198.223 98.956,198.094 99.642,198.007 99.642 C 197.921 99.642,197.849 99.924,197.849 100.269 C 197.849 100.614,197.769 100.896,197.670 100.896 C 197.572 100.896,197.491 101.082,197.491 101.308 C 197.491 101.535,197.424 101.797,197.342 101.891 C 196.176 103.227,197.007 106.810,198.484 106.810 C 198.825 106.810,199.104 106.891,199.104 106.989 C 199.104 107.088,199.306 107.168,199.552 107.168 C 199.798 107.168,200.000 107.088,200.000 106.989 C 200.000 106.891,200.157 106.810,200.350 106.810 C 200.862 106.810,201.613 106.429,201.613 106.169 C 201.613 106.045,201.699 105.915,201.804 105.880 C 201.909 105.845,202.040 105.476,202.096 105.059 C 202.152 104.642,202.268 104.301,202.353 104.301 C 202.439 104.301,202.509 104.019,202.509 103.674 C 202.509 103.329,202.590 103.047,202.688 103.047 C 202.787 103.047,202.867 102.764,202.867 102.419 C 202.867 102.074,202.941 101.792,203.031 101.792 C 203.121 101.792,203.252 101.186,203.321 100.445 C 203.391 99.705,203.519 99.055,203.606 99.001 C 203.692 98.947,203.763 98.591,203.763 98.208 C 203.763 97.825,203.844 97.462,203.943 97.401 C 204.041 97.341,204.122 96.868,204.122 96.351 C 204.122 95.835,204.200 95.334,204.295 95.239 C 204.390 95.144,204.524 93.837,204.591 92.336 C 204.659 90.834,204.783 89.606,204.866 89.606 C 204.950 89.606,205.018 89.243,205.018 88.799 L 205.018 87.993 207.706 87.993 L 210.394 87.993 210.394 94.444 C 210.394 100.168,210.301 101.603,209.991 100.672 C 209.884 100.351,206.065 100.354,205.958 100.675 C 205.916 100.800,205.768 101.016,205.629 101.155 C 205.490 101.294,205.376 101.494,205.376 101.600 C 205.376 101.706,205.296 101.792,205.197 101.792 C 205.098 101.792,205.018 102.270,205.018 102.867 C 205.018 103.465,205.098 103.943,205.197 103.943 C 205.296 103.943,205.376 104.067,205.376 104.219 C 205.376 104.827,206.445 105.556,207.336 105.556 C 207.638 105.556,207.885 105.636,207.885 105.735 C 207.885 105.833,208.168 105.914,208.513 105.914 C 208.858 105.914,209.140 105.995,209.140 106.093 C 209.140 106.192,209.422 106.272,209.767 106.272 C 210.112 106.272,210.394 106.353,210.394 106.452 C 210.394 106.550,210.631 106.631,210.921 106.631 C 211.211 106.631,211.498 106.550,211.559 106.452 C 211.620 106.353,211.947 106.272,212.287 106.272 C 212.626 106.272,212.903 106.192,212.903 106.093 C 212.903 105.995,213.024 105.914,213.172 105.914 C 213.320 105.914,213.441 105.833,213.441 105.735 C 213.441 105.636,213.589 105.556,213.770 105.556 C 214.199 105.556,214.874 104.783,215.372 103.721 L 215.771 102.871 215.771 77.101 L 215.771 51.330 215.088 50.575 L 214.405 49.821 207.695 49.824 L 200.986 49.828 200.538 50.323 M277.599 51.434 C 277.599 51.532,277.437 51.613,277.240 51.613 C 277.018 51.613,276.882 51.732,276.882 51.928 C 276.882 52.102,276.733 52.336,276.552 52.449 C 276.176 52.684,275.979 55.018,276.335 55.018 C 276.438 55.018,276.523 55.145,276.523 55.300 C 276.523 55.707,276.909 56.031,277.564 56.175 C 277.879 56.244,278.136 56.375,278.136 56.466 C 278.136 56.564,281.198 56.631,285.663 56.631 L 293.190 56.631 293.190 57.885 C 293.190 58.602,293.113 59.140,293.011 59.140 C 292.908 59.140,292.832 59.674,292.832 60.384 C 292.832 61.068,292.756 61.674,292.664 61.731 C 292.571 61.788,292.501 61.975,292.507 62.145 C 292.542 63.146,292.216 66.667,292.088 66.667 C 292.004 66.667,291.935 67.231,291.935 67.921 C 291.935 68.638,291.859 69.176,291.756 69.176 C 291.654 69.176,291.577 69.710,291.577 70.420 C 291.577 71.108,291.492 71.716,291.386 71.782 C 291.280 71.847,291.237 72.010,291.288 72.145 C 291.448 72.561,291.271 72.572,284.425 72.585 L 277.763 72.597 276.964 73.385 C 276.175 74.163,275.718 76.344,276.344 76.344 C 276.443 76.344,276.523 76.476,276.523 76.637 C 276.523 76.974,277.181 77.599,277.536 77.599 C 277.669 77.599,277.778 77.679,277.778 77.778 C 277.778 77.894,280.048 77.957,284.229 77.957 L 290.681 77.957 290.681 78.584 C 290.681 78.929,290.600 79.211,290.502 79.211 C 290.400 79.211,290.323 79.739,290.323 80.436 C 290.323 81.110,290.262 81.721,290.188 81.795 C 290.114 81.869,290.045 82.104,290.034 82.318 C 289.895 85.091,289.704 87.097,289.580 87.097 C 289.496 87.097,289.427 87.661,289.427 88.351 C 289.427 89.068,289.350 89.606,289.247 89.606 C 289.145 89.606,289.068 90.143,289.068 90.860 C 289.068 91.550,289.008 92.115,288.934 92.115 C 288.860 92.115,288.791 92.296,288.782 92.518 C 288.687 94.718,288.448 97.133,288.325 97.133 C 288.241 97.133,288.172 97.697,288.172 98.387 C 288.172 99.104,288.095 99.642,287.993 99.642 C 287.894 99.642,287.814 100.085,287.814 100.627 L 287.814 101.613 282.685 101.613 L 277.557 101.613 276.861 102.330 C 275.401 103.834,276.207 106.437,278.221 106.723 C 278.618 106.780,289.722 106.802,302.897 106.773 L 326.852 106.720 327.222 106.272 C 327.425 106.026,327.674 105.727,327.774 105.608 C 327.875 105.489,327.957 105.307,327.957 105.205 C 327.957 105.102,328.038 105.018,328.136 105.018 C 328.606 105.018,328.286 103.137,327.688 102.388 C 327.047 101.584,327.201 101.613,323.565 101.613 L 320.082 101.613 320.032 87.761 L 319.982 73.908 319.534 73.460 C 319.142 73.068,318.692 72.792,318.235 72.663 C 318.161 72.642,313.241 72.609,307.303 72.589 C 301.364 72.569,296.606 72.512,296.729 72.462 C 296.878 72.402,296.953 71.958,296.953 71.143 C 296.953 70.467,297.026 69.869,297.114 69.814 C 297.203 69.760,297.333 68.626,297.405 67.295 C 297.476 65.964,297.605 64.875,297.692 64.875 C 297.779 64.875,297.849 64.310,297.849 63.620 C 297.849 62.903,297.926 62.366,298.029 62.366 C 298.131 62.366,298.208 61.831,298.208 61.122 C 298.208 60.438,298.289 59.828,298.387 59.767 C 298.486 59.706,298.566 59.228,298.566 58.704 C 298.566 58.180,298.617 57.499,298.678 57.191 L 298.790 56.631 312.478 56.631 C 321.483 56.631,326.165 56.570,326.165 56.452 C 326.165 56.353,326.361 56.272,326.600 56.272 C 326.839 56.272,327.142 56.154,327.272 56.010 C 327.812 55.411,327.957 55.203,327.957 55.025 C 327.957 54.923,328.038 54.839,328.136 54.839 C 328.235 54.839,328.315 54.395,328.315 53.853 C 328.315 53.311,328.235 52.867,328.136 52.867 C 328.038 52.867,327.957 52.783,327.957 52.681 C 327.957 52.483,327.732 52.179,327.162 51.604 C 326.764 51.204,277.599 51.035,277.599 51.434 M210.394 61.022 L 210.394 67.025 207.706 67.025 L 205.018 67.025 205.018 61.022 L 205.018 55.018 207.706 55.018 L 210.394 55.018 210.394 61.022 M166.487 68.459 C 166.487 68.557,166.344 68.638,166.168 68.638 C 165.602 68.638,165.233 69.557,165.233 70.968 L 165.233 72.256 166.853 73.852 C 167.745 74.730,168.557 75.448,168.658 75.448 C 168.918 75.448,169.361 75.920,169.227 76.054 C 169.166 76.115,169.204 76.165,169.311 76.165 C 169.552 76.165,171.147 77.741,171.147 77.979 C 171.147 78.074,171.305 78.321,171.499 78.529 C 171.693 78.737,171.809 78.976,171.757 79.059 C 171.706 79.143,171.749 79.211,171.853 79.211 C 171.958 79.211,172.043 79.413,172.043 79.659 C 172.043 79.906,172.124 80.108,172.222 80.108 C 172.321 80.108,172.401 80.470,172.401 80.914 C 172.401 81.358,172.482 81.720,172.581 81.720 C 172.679 81.720,172.760 81.917,172.760 82.158 C 172.760 82.398,172.679 82.645,172.581 82.706 C 172.482 82.767,172.401 83.135,172.401 83.523 C 172.401 83.912,172.321 84.229,172.222 84.229 C 172.124 84.229,172.043 84.381,172.043 84.567 C 172.043 84.753,171.923 85.136,171.775 85.419 C 171.628 85.701,171.507 86.073,171.506 86.246 C 171.506 86.418,171.425 86.559,171.326 86.559 C 171.228 86.559,171.147 86.680,171.147 86.828 C 171.147 86.976,171.066 87.097,170.968 87.097 C 170.869 87.097,170.789 87.245,170.789 87.425 C 170.789 87.606,170.728 87.814,170.654 87.888 C 170.580 87.962,170.513 88.076,170.505 88.142 C 170.449 88.603,170.185 89.247,170.052 89.247 C 169.964 89.247,169.892 89.409,169.892 89.606 C 169.892 89.803,169.821 89.964,169.733 89.964 C 169.577 89.964,169.267 90.817,169.325 91.084 C 169.342 91.158,169.274 91.219,169.176 91.219 C 169.077 91.219,168.996 91.420,168.996 91.667 C 168.996 91.913,168.916 92.115,168.817 92.115 C 168.719 92.115,168.638 92.276,168.638 92.473 C 168.638 92.670,168.567 92.832,168.480 92.832 C 168.347 92.832,168.131 93.281,168.035 93.757 C 168.022 93.823,167.950 93.937,167.876 94.011 C 167.802 94.085,167.742 94.334,167.742 94.564 C 167.742 94.794,167.661 94.982,167.563 94.982 C 167.464 94.982,167.384 95.103,167.384 95.251 C 167.384 95.399,167.303 95.520,167.204 95.520 C 167.106 95.520,167.023 95.661,167.019 95.833 C 167.016 96.006,166.895 96.303,166.751 96.495 C 166.606 96.686,166.487 96.989,166.487 97.167 C 166.487 97.345,166.407 97.491,166.308 97.491 C 166.210 97.491,166.129 97.693,166.129 97.939 C 166.129 98.185,166.048 98.387,165.950 98.387 C 165.851 98.387,165.771 98.548,165.771 98.746 C 165.771 98.943,165.685 99.104,165.581 99.104 C 165.476 99.104,165.437 99.179,165.494 99.271 C 165.551 99.363,165.515 99.488,165.415 99.550 C 165.315 99.612,165.233 99.819,165.233 100.011 C 165.233 100.202,165.152 100.358,165.054 100.358 C 164.955 100.358,164.875 100.560,164.875 100.806 C 164.875 101.053,164.813 101.254,164.738 101.254 C 163.918 101.254,163.707 104.916,164.483 105.684 C 165.534 106.724,167.022 106.992,167.742 106.272 C 167.939 106.075,168.202 105.914,168.327 105.914 C 168.451 105.914,168.699 105.571,168.876 105.152 C 169.054 104.733,169.294 104.169,169.410 103.898 C 169.527 103.627,169.683 103.405,169.757 103.405 C 169.832 103.405,169.892 103.244,169.892 103.047 C 169.892 102.849,169.963 102.688,170.049 102.688 C 170.135 102.688,170.257 102.366,170.320 101.971 C 170.383 101.577,170.514 101.254,170.611 101.254 C 170.709 101.254,170.789 101.093,170.789 100.896 C 170.789 100.699,170.849 100.538,170.924 100.538 C 171.100 100.538,171.466 99.706,171.613 98.968 C 171.677 98.649,171.785 98.387,171.853 98.387 C 171.921 98.387,172.087 98.105,172.222 97.760 C 172.358 97.415,172.529 97.133,172.603 97.133 C 172.677 97.133,172.792 96.770,172.859 96.326 C 172.925 95.883,173.051 95.520,173.139 95.520 C 173.226 95.520,173.297 95.399,173.297 95.251 C 173.297 95.103,173.378 94.982,173.477 94.982 C 173.575 94.982,173.656 94.821,173.656 94.624 C 173.656 94.427,173.736 94.265,173.833 94.265 C 173.930 94.265,174.062 93.943,174.125 93.548 C 174.188 93.154,174.310 92.832,174.396 92.832 C 174.482 92.832,174.552 92.670,174.552 92.473 C 174.552 92.276,174.613 92.115,174.687 92.115 C 174.762 92.115,174.933 91.853,175.068 91.532 C 175.203 91.212,175.424 90.716,175.560 90.429 C 175.696 90.143,175.806 89.760,175.806 89.578 C 175.806 89.396,175.887 89.247,175.986 89.247 C 176.084 89.247,176.165 89.126,176.165 88.978 C 176.165 88.831,176.237 88.710,176.324 88.710 C 176.412 88.710,176.536 88.427,176.601 88.082 C 176.666 87.737,176.796 87.455,176.890 87.455 C 176.984 87.455,177.061 87.213,177.061 86.918 C 177.061 86.622,177.142 86.380,177.240 86.380 C 177.339 86.380,177.419 86.104,177.419 85.768 C 177.419 85.431,177.507 85.126,177.614 85.090 C 177.744 85.047,177.809 84.068,177.809 82.168 C 177.809 80.269,177.744 79.290,177.614 79.247 C 177.507 79.211,177.419 78.906,177.419 78.569 C 177.419 78.233,177.339 77.957,177.240 77.957 C 177.142 77.957,177.061 77.755,177.061 77.509 C 177.061 77.263,176.989 77.061,176.902 77.061 C 176.814 77.061,176.689 76.779,176.625 76.434 C 176.560 76.089,176.430 75.806,176.336 75.806 C 176.242 75.806,176.165 75.722,176.165 75.619 C 176.165 75.516,175.963 75.230,175.717 74.984 C 175.470 74.737,175.269 74.454,175.269 74.355 C 175.269 74.056,172.277 71.147,171.970 71.147 C 171.813 71.147,171.685 71.070,171.685 70.976 C 171.685 70.882,171.485 70.620,171.241 70.393 C 170.689 69.881,170.553 69.745,169.979 69.131 C 169.725 68.860,169.400 68.638,169.257 68.638 C 169.114 68.638,168.996 68.557,168.996 68.459 C 168.996 68.356,168.459 68.280,167.742 68.280 C 167.025 68.280,166.487 68.356,166.487 68.459 M237.197 69.063 C 236.111 69.694,235.932 70.062,235.932 71.662 C 235.932 72.716,236.000 73.201,236.156 73.253 C 236.279 73.294,236.380 73.522,236.380 73.760 C 236.380 73.999,236.461 74.194,236.559 74.194 C 236.658 74.194,236.738 74.355,236.738 74.552 C 236.738 74.749,236.809 74.910,236.895 74.910 C 236.981 74.910,237.103 75.233,237.166 75.627 C 237.229 76.022,237.360 76.344,237.457 76.344 C 237.555 76.344,237.634 76.505,237.634 76.703 C 237.634 76.900,237.715 77.061,237.814 77.061 C 237.912 77.061,237.993 77.138,237.993 77.233 C 237.993 77.336,236.523 77.429,234.364 77.465 C 229.998 77.536,229.211 77.733,229.211 78.756 C 229.211 78.908,229.131 79.032,229.032 79.032 C 228.933 79.032,228.853 79.510,228.853 80.108 C 228.853 80.705,228.933 81.183,229.032 81.183 C 229.131 81.183,229.211 81.269,229.211 81.375 C 229.211 81.480,229.312 81.679,229.435 81.817 C 229.559 81.954,229.763 82.190,229.891 82.341 C 230.091 82.580,231.020 82.616,236.835 82.616 L 243.548 82.616 243.548 85.125 L 243.548 87.634 237.213 87.634 C 230.652 87.634,229.863 87.711,229.655 88.366 C 229.595 88.555,229.471 88.710,229.379 88.710 C 229.287 88.710,229.211 88.831,229.211 88.978 C 229.211 89.126,229.131 89.247,229.032 89.247 C 228.934 89.247,228.853 89.691,228.853 90.233 C 228.853 90.775,228.934 91.219,229.032 91.219 C 229.131 91.219,229.211 91.305,229.211 91.411 C 229.211 91.516,229.312 91.708,229.435 91.837 C 229.559 91.965,229.778 92.242,229.923 92.451 C 230.184 92.827,230.260 92.832,236.868 92.832 L 243.548 92.832 243.548 98.927 C 243.548 105.403,243.550 105.417,244.439 106.221 C 245.617 107.285,248.566 106.604,248.566 105.268 C 248.566 105.130,248.647 105.018,248.746 105.018 C 248.861 105.018,248.925 102.867,248.925 98.925 L 248.925 92.832 255.376 92.832 C 259.558 92.832,261.828 92.768,261.828 92.652 C 261.828 92.554,261.914 92.473,262.020 92.473 C 262.246 92.473,262.546 92.166,262.858 91.617 C 263.125 91.149,263.161 89.068,262.903 89.068 C 262.805 89.068,262.724 88.941,262.724 88.786 C 262.724 87.758,261.908 87.634,255.099 87.634 L 248.925 87.634 248.925 85.125 L 248.925 82.616 255.369 82.616 C 260.968 82.616,261.844 82.580,262.045 82.339 C 262.172 82.186,262.457 81.868,262.679 81.630 C 263.145 81.133,263.249 79.497,262.858 78.815 C 262.102 77.490,262.185 77.515,258.223 77.448 L 254.621 77.386 254.734 76.820 C 254.796 76.509,254.926 76.228,255.022 76.195 C 255.118 76.162,255.197 75.900,255.197 75.612 C 255.197 75.325,255.278 75.090,255.376 75.090 C 255.475 75.090,255.556 74.969,255.556 74.821 C 255.556 74.673,255.631 74.552,255.724 74.552 C 255.816 74.552,255.946 74.189,256.013 73.746 C 256.079 73.302,256.205 72.939,256.293 72.939 C 256.380 72.939,256.452 72.337,256.452 71.601 C 256.452 70.203,255.885 69.176,255.114 69.176 C 254.962 69.176,254.839 69.109,254.839 69.028 C 254.839 68.947,254.435 68.863,253.943 68.840 C 253.411 68.816,253.047 68.876,253.047 68.988 C 253.047 69.091,252.891 69.176,252.700 69.176 C 252.510 69.176,252.304 69.333,252.243 69.525 C 252.182 69.717,251.975 69.924,251.783 69.985 C 251.591 70.046,251.434 70.252,251.434 70.442 C 251.434 70.633,251.362 70.789,251.275 70.789 C 251.187 70.789,251.062 71.151,250.995 71.595 C 250.929 72.039,250.798 72.401,250.706 72.401 C 250.613 72.401,250.538 72.522,250.538 72.670 C 250.538 72.818,250.457 72.939,250.358 72.939 C 250.260 72.939,250.179 73.101,250.179 73.300 C 250.179 73.498,250.104 73.801,250.012 73.972 C 249.465 74.986,249.283 75.608,249.283 76.461 L 249.283 77.419 246.277 77.419 L 243.270 77.419 243.336 76.723 C 243.373 76.341,243.315 75.973,243.207 75.906 C 243.099 75.840,243.011 75.588,243.011 75.348 C 243.011 75.107,242.930 74.910,242.832 74.910 C 242.733 74.910,242.652 74.749,242.652 74.552 C 242.652 74.355,242.572 74.194,242.473 74.194 C 242.375 74.194,242.294 74.033,242.294 73.836 C 242.294 73.395,241.722 72.043,241.535 72.043 C 241.459 72.043,241.398 71.841,241.398 71.595 C 241.398 71.349,241.327 71.147,241.241 71.147 C 241.155 71.147,241.035 70.903,240.976 70.605 C 240.855 70.002,240.126 69.176,239.714 69.176 C 239.568 69.176,239.406 69.108,239.354 69.025 C 239.216 68.801,237.599 68.830,237.197 69.063 M210.394 77.509 L 210.394 82.616 207.706 82.616 L 205.018 82.616 205.018 77.509 L 205.018 72.401 207.706 72.401 L 210.394 72.401 210.394 77.509 M314.875 89.785 L 314.875 101.613 304.032 101.613 L 293.190 101.613 293.190 100.996 C 293.190 100.657,293.262 100.335,293.351 100.280 C 293.439 100.226,293.570 99.090,293.641 97.758 C 293.713 96.425,293.842 95.291,293.929 95.237 C 294.015 95.184,294.086 94.580,294.086 93.896 C 294.086 93.186,294.163 92.652,294.265 92.652 C 294.368 92.652,294.444 92.115,294.444 91.398 C 294.444 90.708,294.516 90.143,294.604 90.143 C 294.691 90.143,294.821 89.014,294.892 87.634 C 294.964 86.254,295.094 85.125,295.181 85.125 C 295.269 85.125,295.341 84.521,295.341 83.781 C 295.341 83.005,295.416 82.437,295.520 82.437 C 295.622 82.437,295.699 81.900,295.699 81.183 C 295.699 80.466,295.776 79.928,295.878 79.928 C 295.977 79.928,296.057 79.485,296.057 78.943 L 296.057 77.957 305.466 77.957 L 314.875 77.957 314.875 89.785 M191.577 89.875 L 191.577 100.538 187.814 100.538 L 184.050 100.538 184.050 89.875 L 184.050 79.211 187.814 79.211 L 191.577 79.211 191.577 89.875 M319.445 131.363 C 319.624 131.561,319.808 131.686,319.853 131.640 C 319.950 131.543,319.439 131.004,319.250 131.004 C 319.179 131.004,319.266 131.165,319.445 131.363 " stroke="none" fill="#343434" fill-rule="evenodd"></path><path id="path4" d="M112.903 42.652 C 112.903 42.751,112.742 42.832,112.545 42.832 C 112.348 42.832,112.186 42.912,112.186 43.011 C 112.186 43.109,112.040 43.190,111.861 43.190 C 111.676 43.190,111.404 43.441,111.231 43.772 C 111.063 44.093,110.728 44.718,110.486 45.161 C 109.255 47.417,110.358 50.143,113.056 51.510 C 113.542 51.756,114.073 52.091,114.236 52.254 C 114.399 52.418,114.589 52.496,114.656 52.428 C 114.815 52.270,114.179 51.793,112.946 51.148 C 111.890 50.596,110.573 49.254,110.573 48.731 C 110.573 48.553,110.493 48.358,110.394 48.297 C 110.296 48.237,110.215 47.712,110.215 47.133 C 110.215 46.553,110.296 46.029,110.394 45.968 C 110.493 45.907,110.573 45.709,110.573 45.529 C 110.573 45.128,112.120 43.369,112.472 43.369 C 112.611 43.369,112.724 43.289,112.724 43.190 C 112.724 43.084,113.381 43.011,114.337 43.011 C 115.293 43.011,115.950 43.084,115.950 43.190 C 115.950 43.289,116.095 43.369,116.272 43.369 C 116.450 43.369,116.685 43.459,116.794 43.569 C 116.904 43.678,117.087 43.737,117.200 43.699 C 117.524 43.591,116.773 42.832,116.343 42.832 C 116.138 42.832,115.921 42.751,115.860 42.652 C 115.799 42.554,115.109 42.473,114.326 42.473 C 113.497 42.473,112.903 42.548,112.903 42.652 M52.330 78.136 C 52.330 78.235,52.250 78.315,52.152 78.315 C 51.837 78.315,49.566 79.868,49.104 80.399 C 47.434 82.320,47.546 84.725,49.406 86.878 C 49.719 87.242,50.029 87.486,50.093 87.422 C 50.157 87.358,49.953 87.036,49.638 86.708 C 47.187 84.148,47.825 81.205,51.299 79.038 C 52.323 78.399,52.781 77.957,52.419 77.957 C 52.370 77.957,52.330 78.038,52.330 78.136 M51.075 87.814 C 51.075 87.912,51.196 87.993,51.344 87.993 C 51.492 87.993,51.613 87.912,51.613 87.814 C 51.613 87.715,51.492 87.634,51.344 87.634 C 51.196 87.634,51.075 87.715,51.075 87.814 M53.405 87.814 C 53.405 87.912,53.566 87.993,53.763 87.993 C 53.961 87.993,54.122 87.912,54.122 87.814 C 54.122 87.715,53.961 87.634,53.763 87.634 C 53.566 87.634,53.405 87.715,53.405 87.814 " stroke="none" fill="#74bc8c" fill-rule="evenodd"></path></g></svg>